<svg xmlns="http://www.w3.org/2000/svg" xmlns:xlink="http://www.w3.org/1999/xlink" width="1200" zoomAndPan="magnify" viewBox="0 0 900 44.999999" height="60" preserveAspectRatio="xMidYMid meet" version="1.0"><defs><clipPath id="98cd053e20"><path d="M 262 10.714844 L 638 10.714844 L 638 33.964844 L 262 33.964844 Z M 262 10.714844 " clip-rule="nonzero"/></clipPath></defs><g clip-path="url(#98cd053e20)"><path fill="#e10613" d="M 637.277344 25.328125 C 635.992188 22.371094 632.4375 21.683594 629.972656 19.90625 C 630.929688 17.246094 632.808594 15.515625 634.449219 13.539062 C 632.144531 14.0625 631.398438 16.148438 629.261719 16.839844 C 628.871094 14.601562 631.367188 14.125 630.441406 12.125 C 627.878906 13.097656 627.457031 16.210938 625.726562 18.019531 C 625.628906 17.566406 625.644531 17.003906 625.019531 17.074219 C 624.136719 17.292969 624.191406 18.445312 623.605469 18.960938 C 622.429688 19.148438 622.453125 18.136719 621.484375 18.726562 C 620.609375 17.246094 620.542969 14.957031 618.65625 14.484375 C 617.925781 15.988281 619.394531 17.152344 619.597656 18.492188 C 613.90625 17.6875 609.28125 19.945312 604.277344 20.613281 C 604.695312 19.121094 605.257812 15.609375 604.277344 14.25 C 602.386719 14.636719 603.683594 18.214844 602.625 19.433594 C 601.675781 19.363281 602.210938 17.808594 601.210938 17.78125 C 600.546875 17.824219 600.917969 18.90625 600.03125 18.726562 C 599.929688 18.28125 600.351562 17.304688 599.5625 17.546875 C 598.878906 17.886719 599.191406 19.222656 598.148438 19.199219 C 597.96875 18.433594 597.753906 17.703125 596.730469 17.78125 C 596.046875 18.121094 596.300781 19.394531 595.550781 19.667969 C 593.535156 18.121094 592.191406 14.746094 589.425781 14.71875 C 589.847656 17.359375 592.953125 18.574219 593.667969 20.140625 C 586.652344 16.679688 579.671875 21.242188 572.921875 22.261719 C 573.792969 19.4375 575.539062 17.492188 576.222656 14.484375 C 574.644531 14.804688 574.03125 16.726562 573.394531 18.019531 C 572.644531 19.546875 572.320312 21.339844 571.273438 22.496094 C 570.632812 22.351562 569.402344 22.796875 569.152344 22.261719 C 569.523438 21.140625 569.867188 19.992188 569.859375 18.492188 C 568.359375 18.5625 568.46875 20.242188 567.738281 21.082031 C 567.320312 20.636719 567.566406 19.527344 567.5 18.726562 C 566.144531 18.941406 566.894531 21.261719 566.085938 22.027344 C 565.191406 21.746094 566.191406 19.566406 565.144531 19.433594 C 564.347656 19.660156 565.1875 21.519531 564.203125 21.554688 C 562.546875 19.125 563.613281 13.96875 561.609375 11.890625 C 561.160156 15.339844 562.492188 19.011719 562.550781 22.734375 C 557.332031 21.507812 551.644531 20.753906 546.992188 18.964844 C 547.097656 17.832031 548.195312 15.367188 547.230469 14.71875 C 545.578125 14.5625 547.300781 19.816406 544.636719 19.433594 C 543.902344 17.417969 544.328125 14.246094 542.515625 13.304688 C 540.890625 14.3125 542.652344 16.757812 542.515625 18.492188 C 540.921875 18.515625 539.96875 17.894531 538.273438 18.019531 C 537.566406 16.214844 537.765625 13.5 536.148438 12.597656 C 535.058594 13.96875 536.457031 16.179688 536.621094 17.785156 C 530.855469 17.597656 526.078125 19.65625 521.535156 19.90625 C 522.503906 17.25 524.277344 14.179688 524.128906 11.183594 C 522 12.75 522.839844 17.28125 520.355469 18.492188 C 519.449219 18.140625 520.511719 15.820312 519.175781 15.898438 C 518.484375 16.226562 518.847656 17.613281 518.234375 18.019531 C 517.746094 17.5625 517.785156 16.585938 517.527344 15.898438 C 516.546875 15.859375 517.054688 17.3125 516.347656 17.550781 C 516.144531 16.761719 515.441406 16.476562 514.699219 16.84375 C 514.390625 17.644531 515.222656 18.488281 514.699219 18.726562 C 510.695312 19.195312 511.300781 15.054688 508.097656 14.722656 C 507.441406 16.371094 509.589844 17.113281 509.984375 18.492188 C 505.6875 18.832031 502.296875 20.078125 498.667969 21.085938 C 499.4375 18.945312 500.617188 17.21875 501.027344 14.722656 C 498.679688 15.832031 499.144531 19.75 497.019531 21.085938 C 495.609375 20.296875 494.519531 19.183594 493.246094 18.257812 C 493.023438 19.277344 493.589844 20.726562 493.246094 21.085938 C 491.941406 20.191406 492.214844 17.71875 490.890625 16.84375 C 490.339844 18.371094 491.148438 19.644531 491.128906 21.320312 C 484.925781 21.640625 478.332031 21.570312 472.976562 22.734375 C 472.429688 22.023438 472.460938 20.734375 471.324219 20.613281 C 470.355469 20.429688 470.882812 21.742188 469.910156 21.558594 C 469.351562 20.859375 469.425781 19.007812 468.140625 19.039062 C 467.210938 18.972656 468.191406 21.097656 467.554688 21.320312 C 466.054688 20.285156 466.109375 16.507812 464.253906 16.605469 C 463.539062 18.609375 466.109375 20.53125 465.433594 22.5 C 459.78125 20.667969 452.269531 19.5 445.160156 19.90625 C 445.0625 17.648438 446.925781 13.976562 445.160156 12.363281 C 443.808594 14.390625 444.988281 18.949219 443.039062 20.378906 C 442.464844 19.742188 443.113281 17.6875 442.5625 16.707031 C 441.332031 16.65625 441.511719 19.558594 440.679688 19.90625 C 440.554688 18.851562 440.292969 17.9375 439.503906 17.550781 C 438.90625 17.972656 438.929688 19.019531 438.558594 19.671875 C 437.363281 17.941406 437.859375 13.324219 435.730469 13.308594 C 434.96875 16.128906 437.265625 19.136719 436.910156 21.558594 C 430.550781 19.359375 421.019531 18.605469 414.75 20.613281 C 415.476562 18.589844 415.902344 16.265625 416.636719 14.25 C 413.90625 15.210938 415.03125 20.03125 412.628906 21.320312 C 412.59375 20.257812 412.75 18.335938 411.726562 18.261719 C 411.296875 18.773438 411.617188 21.410156 410.742188 21.792969 C 410.035156 21.03125 409.445312 18.765625 408.371094 19.140625 C 408.570312 20.601562 408.144531 21.710938 406.972656 21.792969 C 405.304688 21.101562 405.382812 18.667969 403.4375 18.257812 C 403.085938 19.636719 404.539062 20.445312 404.144531 21.085938 C 397.308594 20.183594 390.167969 19.941406 383.164062 20.851562 C 382.660156 18.566406 384.277344 15.613281 382.691406 14.484375 C 381.449219 15.835938 382.632812 19.613281 381.515625 21.085938 C 381.292969 19.050781 378.875 19.558594 377.980469 19.90625 C 377.550781 18.605469 377.65625 16.773438 376.09375 16.605469 C 376.164062 18.5 377.292969 19.335938 377.269531 21.320312 C 371.828125 19.851562 365.667969 19.09375 359.828125 18.019531 C 360.347656 16.996094 361.554688 15.574219 361.007812 14.25 C 358.488281 14.640625 358.546875 17.605469 356.292969 18.257812 C 354.542969 16.941406 355.75 13.386719 354.789062 11.523438 C 354.636719 11.226562 354.167969 10.714844 353.933594 10.714844 C 353.878906 13.285156 353.953125 15.71875 354.40625 17.785156 C 353.574219 17.59375 353.800781 16.34375 352.753906 16.371094 C 352.152344 17.101562 352.820312 19.105469 351.105469 18.726562 C 350.191406 17.753906 350.464844 15.597656 348.746094 15.425781 C 348.867188 16.878906 349.644531 17.675781 349.925781 18.964844 C 344.992188 19.449219 341.328125 21.207031 336.019531 21.320312 C 334.578125 19.015625 336.957031 16.042969 335.78125 14.25 C 334.726562 15.863281 334.847656 18.65625 333.191406 19.667969 C 332.769531 18.984375 332.070312 17.613281 331.304688 18.019531 C 330.871094 18.84375 331.148438 20.378906 330.359375 20.847656 C 329.148438 20.8125 328.957031 18.734375 327.769531 19.433594 C 327.015625 19.613281 328.015625 21.175781 327.53125 21.082031 C 322.785156 20.71875 317.203125 20.761719 312.445312 21.082031 C 312.914062 18.222656 314.984375 14.550781 313.859375 11.65625 C 312.417969 14.613281 312.648438 19.242188 310.324219 21.320312 C 309.945312 20.597656 310.121094 19.324219 309.617188 18.726562 C 307.617188 18.613281 308.457031 21.339844 306.789062 21.554688 C 306.210938 19.542969 305.890625 17.265625 303.960938 16.605469 C 302.808594 17.808594 303.378906 20.742188 302.074219 21.792969 C 300.214844 19.878906 299.761719 16.558594 297.125 15.425781 C 297.300781 18.082031 299.832031 19.632812 299.953125 21.554688 C 292.722656 20.355469 284.921875 17.367188 277.792969 19.433594 C 277.804688 17.992188 279.675781 16.835938 278.5 15.664062 C 276.578125 16.882812 276.09375 19.542969 272.609375 19.199219 C 272.171875 17.746094 272.023438 16.011719 270.722656 15.425781 C 270.039062 16.925781 270.242188 18.851562 270.957031 20.140625 C 267.980469 18.855469 267.613281 13.777344 264.828125 13.070312 C 264.941406 16.257812 266.976562 17.523438 267.65625 20.140625 C 266.058594 20.585938 263.992188 20.5625 263.648438 22.261719 C 264.007812 23.507812 265.542969 22.667969 266.476562 22.5 C 265.632812 24.011719 263.207031 23.945312 262.707031 25.796875 C 264.179688 26.351562 265.382812 24.746094 266.949219 24.621094 C 266.539062 27.132812 263.660156 28.382812 264.121094 30.984375 C 267.582031 29.414062 267.785156 24.589844 270.957031 22.734375 C 271.238281 24.027344 271.195312 25.640625 272.605469 25.796875 C 273.300781 25.316406 272.382812 23.21875 273.078125 22.734375 C 274.515625 25.382812 275.050781 28.933594 277.085938 30.984375 C 277.78125 28.5 274.675781 25.449219 276.378906 22.734375 C 280.605469 26.253906 287.640625 29.125 295.472656 28.628906 C 298.480469 28.4375 301.621094 27.6875 303.488281 26.742188 C 302.074219 29.097656 299.929688 30.730469 299.242188 33.8125 C 302.542969 32.320312 302.792969 27.777344 306.078125 26.269531 C 306.640625 27.28125 306.632812 28.859375 307.964844 29.097656 C 308.765625 28.5625 308.34375 26.804688 309.144531 26.269531 C 312.042969 27.617188 311.703125 32.199219 314.566406 33.578125 C 314.746094 30.785156 312.554688 28.375 311.972656 25.5625 C 318.109375 25.648438 324.300781 24.535156 329.652344 24.621094 C 329.730469 27.082031 327.902344 28.808594 328.472656 30.984375 C 330.421875 29.398438 329.949219 25.390625 332.011719 23.914062 C 332.324219 25.015625 332.328125 26.421875 334.132812 26.035156 C 334.640625 25.835938 334.042969 24.53125 334.601562 24.382812 C 335.796875 25.3125 336.125 27.105469 336.253906 29.097656 C 337.921875 28.910156 336.582031 26.644531 337.195312 25.796875 C 339.507812 28.660156 345.628906 27.796875 348.746094 26.976562 C 348.097656 29.097656 346.820312 31.785156 347.097656 34.050781 C 349.042969 32.304688 348.605469 28.171875 350.398438 26.269531 C 351.898438 26.011719 353.921875 24.742188 354.929688 26.253906 C 355.828125 25.347656 354.730469 24.035156 358.882812 23.914062 C 362.902344 27.792969 371.917969 24.5 377.269531 24.855469 C 376.847656 27.535156 374.058594 30.238281 375.148438 32.871094 C 376.746094 30.222656 377.238281 26.472656 379.390625 24.382812 C 380.230469 24.644531 379.804688 26.386719 380.253906 27.039062 C 381.398438 26.832031 380.828125 25.035156 381.75 24.855469 C 382.5625 26.25 381.339844 28.578125 381.984375 29.804688 C 383.613281 29.46875 382.675781 26.566406 383.398438 25.328125 C 390.089844 26.839844 398.953125 24.769531 404.378906 25.089844 C 403.449219 27.304688 401.777344 28.777344 401.316406 31.457031 C 403.875 30.242188 404.050781 26.648438 406.03125 24.855469 C 406.671875 27.121094 407.472656 29.226562 409.566406 30.042969 C 409.945312 27.828125 411.613281 26.902344 412.394531 25.089844 C 413.914062 27.261719 414.6875 30.183594 416.636719 31.925781 C 416.546875 28.953125 414.828125 27.609375 414.042969 25.328125 C 420.648438 26.722656 429.433594 28.226562 435.96875 25.796875 C 435.054688 27.792969 433.875 29.523438 433.375 31.925781 C 435.871094 30.808594 435.542969 26.871094 437.617188 25.328125 C 437.683594 26.359375 437.371094 27.769531 438.324219 27.917969 C 439.675781 26.15625 439.207031 25.816406 439.738281 24.855469 C 440.089844 25.289062 440.191406 25.972656 440.210938 26.742188 C 442.929688 25.296875 441.5 28.28125 442.804688 28.390625 C 443.40625 27.5 442.929688 25.53125 443.746094 24.855469 C 447.011719 25.917969 447.707031 30.785156 450.347656 31.691406 C 449.890625 28.847656 447.097656 27.085938 446.574219 25.089844 C 450.703125 26.257812 457.40625 26.003906 461.898438 26.035156 C 461.011719 27.53125 458.515625 28.59375 459.066406 30.746094 C 462.1875 29.859375 462.855469 26.519531 465.667969 25.328125 C 467.242188 26.265625 466.933594 29.089844 468.96875 29.570312 C 470.023438 28.914062 469.007812 26.242188 469.441406 25.5625 C 470.429688 25.90625 470.085938 27.589844 471.324219 27.683594 C 471.832031 27.167969 471.589844 25.90625 472.03125 25.328125 C 474.929688 26.828125 474.714844 31.441406 477.21875 33.339844 C 477.5 30.527344 474.566406 27.679688 474.390625 25.328125 C 479.375 26.078125 485.171875 26.015625 490.417969 26.503906 C 490.152344 28.007812 489.265625 30.007812 489.710938 31.457031 C 491.539062 30.765625 490.476562 27.191406 492.070312 26.269531 C 493 26.675781 493.078125 27.933594 494.191406 28.15625 C 494.710938 27.734375 494.765625 26.84375 495.132812 26.269531 C 495.472656 26.636719 495.730469 27.089844 496.3125 27.210938 C 497.132812 26.773438 497.40625 25.789062 498.433594 25.5625 C 499.753906 27.226562 500.964844 29.003906 503.148438 29.804688 C 504.210938 28.203125 501.449219 27.316406 501.734375 26.503906 C 507.359375 27.398438 512.128906 22.335938 515.878906 23.914062 C 516 25.523438 515.714844 27.53125 516.820312 28.15625 C 517.808594 27.226562 516.71875 23.804688 519.414062 25.089844 C 520.253906 25.492188 519.503906 23.453125 520.121094 23.207031 C 523.800781 24.238281 523.941406 28.816406 526.25 31.21875 C 527.144531 29.113281 524.074219 25.9375 523.65625 24.382812 C 527.265625 25.960938 532.257812 26.320312 536.859375 26.269531 C 536.554688 27.925781 534.472656 30.070312 535.679688 31.691406 C 536.929688 29.957031 537.378906 27.417969 538.746094 25.796875 C 540.144531 26.285156 540.191406 28.121094 541.574219 28.625 C 541.667969 27.78125 541.527344 26.226562 542.171875 25.933594 C 542.851562 25.960938 543.824219 26.375 544.167969 26.742188 C 544.257812 28.0625 544.167969 29.570312 545.34375 29.804688 C 545.722656 28.117188 544.390625 26.070312 545.582031 25.089844 C 547.511719 25.675781 548.507812 29.035156 550.851562 29.207031 C 551.488281 29.375 549.0625 26.582031 549.703125 26.75 C 554.113281 27.59375 559.949219 27.316406 563.496094 26.035156 C 563.742188 28.855469 562.890625 32.769531 564.4375 34.285156 C 565.671875 32.636719 564.304688 29.777344 564.675781 27.449219 C 566.488281 28.375 567.058594 26.5 568.683594 26.503906 C 569.515625 27.242188 568.632812 29.695312 569.863281 30.042969 C 570.558594 29.558594 569.636719 27.460938 570.332031 26.976562 C 573.640625 27.292969 573.261719 32.519531 575.753906 32.871094 C 576.007812 31.09375 573.511719 28.851562 573.398438 27.449219 C 582.117188 29.589844 590.414062 27.023438 595.082031 22.96875 C 595.695312 25.351562 593.460938 28.0625 594.140625 30.511719 C 596.320312 29.078125 595.628906 24.773438 597.441406 22.96875 C 599.339844 23.425781 597.84375 27.277344 599.5625 27.917969 C 600.59375 27.21875 598.90625 24.230469 600.742188 23.910156 C 601.703125 25.09375 602.601562 24.257812 603.570312 23.675781 C 606.480469 25.871094 607.023438 30.4375 609.226562 33.339844 C 609.816406 29.753906 606.730469 26.578125 606.164062 24.148438 C 610.960938 25.503906 619.183594 28.484375 622.898438 24.148438 C 623.148438 25.074219 623.820312 25.582031 624.785156 25.796875 C 625.832031 25.585938 626.273438 24.773438 626.90625 24.148438 C 628.535156 26.242188 628.46875 31.1875 631.148438 31.453125 C 631.492188 28.59375 627.8125 25.722656 629.734375 22.027344 C 632.65625 22.578125 634.175781 25.742188 637.277344 25.328125 Z M 292.648438 26.742188 C 286.875 26.761719 281.695312 24.535156 278.976562 22.027344 C 285.597656 18.453125 294.726562 22.921875 301.609375 24.148438 C 300.558594 27.097656 295.589844 26.730469 292.648438 26.742188 Z M 311.980469 23.441406 C 313.824219 22.691406 316.480469 22.753906 319.050781 22.734375 C 317.433594 23.710938 314.476562 23.34375 311.980469 23.441406 Z M 349.460938 24.617188 C 345.835938 25.992188 339.617188 27.042969 337.671875 23.441406 C 342.316406 22.898438 345.578125 20.976562 350.636719 20.847656 C 350.164062 22.023438 349.867188 23.378906 349.460938 24.617188 Z M 352.761719 23.441406 C 352.097656 23.71875 351.40625 23.972656 350.636719 24.148438 C 351.238281 23.097656 351.035156 21.246094 352.289062 20.847656 C 352.289062 21.867188 352.835938 22.34375 352.761719 23.441406 Z M 354.175781 23.203125 C 354.175781 22.574219 354.175781 21.949219 354.175781 21.320312 C 355.3125 21.148438 354.949219 23.230469 354.175781 23.203125 Z M 358.890625 21.082031 C 358.824219 20.703125 359 20.507812 359.125 20.375 C 364.527344 20.167969 370.140625 21.769531 375.15625 22.734375 C 370.71875 23.730469 360.796875 25.734375 358.890625 21.082031 Z M 382.460938 23.203125 C 388.082031 21.640625 396.367188 21.804688 402.261719 22.96875 C 396.289062 24.117188 388.460938 24.496094 382.460938 23.203125 Z M 408.15625 25.328125 C 408.15625 25.011719 408.15625 24.699219 408.15625 24.382812 C 408.390625 24.382812 408.625 24.382812 408.863281 24.382812 C 408.929688 25 408.777344 25.398438 408.15625 25.328125 Z M 413.8125 23.441406 C 419.285156 19.597656 430.214844 21.253906 436.207031 23.441406 C 430.40625 26.777344 420.296875 24.824219 413.8125 23.441406 Z M 454.121094 24.148438 C 450.613281 23.988281 446.5 23.894531 444.691406 22.261719 C 450.226562 20.546875 456.929688 22.394531 461.898438 23.441406 C 459.894531 24.363281 456.929688 24.277344 454.121094 24.148438 Z M 480.523438 23.914062 C 483.355469 23.558594 488.222656 22.875 490.894531 23.914062 C 488.1875 24.957031 483.648438 23.996094 480.523438 23.914062 Z M 499.378906 23.914062 C 500.5 21.527344 508.003906 20.011719 512.582031 20.613281 C 511.378906 23.648438 503.707031 25.519531 499.378906 23.914062 Z M 516.589844 20.847656 C 516.273438 20.847656 515.960938 20.847656 515.644531 20.847656 C 515.460938 19.941406 516.773438 19.941406 516.589844 20.847656 Z M 518.945312 21.320312 C 518.746094 21.046875 518.632812 20.6875 518.710938 20.140625 C 519.253906 20.066406 519.613281 20.179688 519.886719 20.375 C 519.859375 20.976562 519.542969 21.289062 518.945312 21.320312 Z M 522.953125 21.789062 C 527.554688 20.972656 531.472656 19.46875 537.09375 19.667969 C 537.796875 20.695312 537.953125 22.269531 538.273438 23.675781 C 533.117188 25.085938 526.417969 24.160156 522.953125 21.789062 Z M 540.394531 22.261719 C 539.820312 21.738281 539.34375 21.113281 539.21875 20.140625 C 540.078125 19.988281 540.472656 20.300781 540.867188 20.613281 C 540.890625 21.34375 540.578125 21.738281 540.394531 22.261719 Z M 543.226562 21.789062 C 542.167969 22.113281 542.082031 20.839844 542.519531 20.375 C 543.015625 20.613281 543.660156 21.328125 543.226562 21.789062 Z M 547.703125 24.382812 C 547.175781 23.574219 547.070312 22.347656 546.761719 21.320312 C 551.824219 22.070312 556.089844 23.621094 561.140625 24.382812 C 557.902344 26.152344 551.164062 25.296875 547.703125 24.382812 Z M 571.511719 25.089844 C 571.027344 24.949219 569.875 25.472656 570.097656 24.617188 C 570.582031 24.761719 571.734375 24.238281 571.511719 25.089844 Z M 572.691406 25.089844 C 573.90625 23.378906 576.949219 23.476562 579.527344 22.734375 C 583.410156 21.613281 588.648438 19.035156 592.492188 22.027344 C 589.160156 26.59375 579.269531 27.15625 572.691406 25.089844 Z M 606.871094 22.496094 C 610.691406 20.925781 616.261719 19.574219 621.25 20.613281 C 623.066406 27.285156 610.328125 23.496094 606.871094 22.496094 Z M 623.84375 21.789062 C 625.023438 21.867188 624.421875 23.722656 624.785156 24.617188 C 623.898438 24.246094 623.789062 23.101562 623.84375 21.789062 Z M 627.378906 22.96875 C 626.878906 22.78125 626.457031 22 626.90625 21.554688 C 627.316406 21.773438 627.425781 22.292969 627.378906 22.96875 Z M 627.847656 19.433594 C 627.789062 18.742188 628.382812 18.710938 628.320312 18.019531 C 628.824219 18.238281 628.644531 19.734375 627.847656 19.433594 Z M 627.847656 19.433594 " fill-opacity="1" fill-rule="evenodd"/></g></svg>