<svg xmlns="http://www.w3.org/2000/svg" xmlns:xlink="http://www.w3.org/1999/xlink" width="1200" zoomAndPan="magnify" viewBox="0 0 900 119.999999" height="160" preserveAspectRatio="xMidYMid meet" version="1.0"><defs><g/><clipPath id="49c0895a8c"><rect x="0" width="283" y="0" height="70"/></clipPath></defs><g transform="matrix(1, 0, 0, 1, 309, 25)"><g clip-path="url(#49c0895a8c)"><g fill="#e10613" fill-opacity="1"><g transform="translate(0.702792, 52.059013)"><g><path d="M 9.546875 0.484375 C 7.992188 0.484375 6.585938 -0.0351562 5.328125 -1.078125 C 4.078125 -2.128906 3.078125 -3.628906 2.328125 -5.578125 C 1.585938 -7.523438 1.21875 -9.84375 1.21875 -12.53125 C 1.21875 -15.53125 1.664062 -18.144531 2.5625 -20.375 C 3.46875 -22.601562 4.695312 -24.328125 6.25 -25.546875 C 7.8125 -26.773438 9.550781 -27.390625 11.46875 -27.390625 C 13.09375 -27.390625 14.363281 -27.070312 15.28125 -26.4375 C 15.632812 -26.1875 15.8125 -25.796875 15.8125 -25.265625 L 15.921875 -18.796875 C 15.921875 -18.265625 15.707031 -18 15.28125 -18 C 14.894531 -18 14.648438 -18.226562 14.546875 -18.6875 C 14.046875 -20.632812 13.566406 -22.132812 13.109375 -23.1875 C 12.648438 -24.25 12.171875 -24.984375 11.671875 -25.390625 C 11.179688 -25.804688 10.632812 -26.015625 10.03125 -26.015625 C 9.320312 -26.015625 8.585938 -25.601562 7.828125 -24.78125 C 7.066406 -23.96875 6.429688 -22.648438 5.921875 -20.828125 C 5.410156 -19.003906 5.15625 -16.609375 5.15625 -13.640625 C 5.15625 -9.859375 5.640625 -7.007812 6.609375 -5.09375 C 7.578125 -3.1875 8.84375 -2.234375 10.40625 -2.234375 C 11.644531 -2.234375 12.675781 -2.742188 13.5 -3.765625 C 14.332031 -4.796875 15.050781 -6.65625 15.65625 -9.34375 C 15.757812 -9.726562 15.972656 -9.921875 16.296875 -9.921875 C 16.722656 -9.921875 16.878906 -9.566406 16.765625 -8.859375 C 16.378906 -6.390625 15.84375 -4.472656 15.15625 -3.109375 C 14.46875 -1.742188 13.65625 -0.800781 12.71875 -0.28125 C 11.78125 0.226562 10.722656 0.484375 9.546875 0.484375 Z M 9.546875 0.484375 "/></g></g></g><g fill="#e10613" fill-opacity="1"><g transform="translate(15.881527, 52.059013)"><g><path d="M 9.078125 0.484375 C 8.191406 0.484375 7.34375 0.289062 6.53125 -0.09375 C 5.71875 -0.488281 5.046875 -1.109375 4.515625 -1.953125 C 3.984375 -2.804688 3.71875 -3.941406 3.71875 -5.359375 L 3.71875 -23.828125 C 3.71875 -24.460938 3.617188 -24.90625 3.421875 -25.15625 C 3.222656 -25.40625 2.878906 -25.546875 2.390625 -25.578125 L 1.484375 -25.6875 C 0.878906 -25.757812 0.578125 -25.988281 0.578125 -26.375 C 0.578125 -26.832031 0.914062 -27.0625 1.59375 -27.0625 L 6.53125 -27.0625 C 7.0625 -27.0625 7.328125 -26.800781 7.328125 -26.28125 L 7.328125 -6.46875 C 7.328125 -4.84375 7.632812 -3.6875 8.25 -3 C 8.875 -2.3125 9.734375 -1.96875 10.828125 -1.96875 C 11.921875 -1.96875 12.890625 -2.273438 13.734375 -2.890625 C 14.585938 -3.515625 15.269531 -4.347656 15.78125 -5.390625 C 16.300781 -6.429688 16.5625 -7.570312 16.5625 -8.8125 L 16.5625 -23.828125 C 16.5625 -24.460938 16.460938 -24.90625 16.265625 -25.15625 C 16.066406 -25.40625 15.722656 -25.546875 15.234375 -25.578125 L 14.328125 -25.6875 C 13.722656 -25.757812 13.421875 -25.988281 13.421875 -26.375 C 13.421875 -26.832031 13.757812 -27.0625 14.4375 -27.0625 L 19.375 -27.0625 C 19.90625 -27.0625 20.171875 -26.800781 20.171875 -26.28125 L 20.171875 -5.671875 C 20.171875 -5.035156 20.265625 -4.601562 20.453125 -4.375 C 20.648438 -4.144531 21 -3.992188 21.5 -3.921875 L 22.609375 -3.765625 C 23.066406 -3.734375 23.296875 -3.554688 23.296875 -3.234375 C 23.296875 -2.921875 23.015625 -2.707031 22.453125 -2.59375 C 21.359375 -2.457031 20.484375 -2.175781 19.828125 -1.75 C 19.171875 -1.320312 18.59375 -0.8125 18.09375 -0.21875 C 17.78125 0.101562 17.515625 0.265625 17.296875 0.265625 C 16.984375 0.265625 16.828125 0.0507812 16.828125 -0.375 L 16.828125 -2.8125 C 16.828125 -3.09375 16.726562 -3.257812 16.53125 -3.3125 C 16.332031 -3.363281 16.128906 -3.285156 15.921875 -3.078125 C 14.609375 -1.765625 13.445312 -0.84375 12.4375 -0.3125 C 11.4375 0.21875 10.316406 0.484375 9.078125 0.484375 Z M 9.078125 0.484375 "/></g></g></g><g fill="#e10613" fill-opacity="1"><g transform="translate(37.1636, 52.059013)"><g><path d="M 8.171875 -23.671875 C 9.617188 -26.148438 11.367188 -27.390625 13.421875 -27.390625 C 14.597656 -27.390625 15.46875 -27.039062 16.03125 -26.34375 C 16.59375 -25.65625 16.875 -24.890625 16.875 -24.046875 C 16.875 -23.367188 16.707031 -22.816406 16.375 -22.390625 C 16.039062 -21.972656 15.519531 -21.765625 14.8125 -21.765625 C 14.238281 -21.765625 13.816406 -21.894531 13.546875 -22.15625 C 13.285156 -22.425781 13.078125 -22.738281 12.921875 -23.09375 C 12.765625 -23.445312 12.578125 -23.753906 12.359375 -24.015625 C 12.148438 -24.285156 11.800781 -24.421875 11.3125 -24.421875 C 10.664062 -24.421875 10.0625 -24.039062 9.5 -23.28125 C 8.9375 -22.519531 8.46875 -21.5 8.09375 -20.21875 C 7.71875 -18.945312 7.53125 -17.5 7.53125 -15.875 L 7.53125 -3.5625 C 7.53125 -2.8125 7.644531 -2.273438 7.875 -1.953125 C 8.113281 -1.640625 8.601562 -1.445312 9.34375 -1.375 L 10.78125 -1.21875 C 11.164062 -1.144531 11.359375 -0.953125 11.359375 -0.640625 C 11.359375 -0.210938 11.09375 0 10.5625 0 L 1.59375 0 C 1.0625 0 0.796875 -0.191406 0.796875 -0.578125 C 0.796875 -0.898438 1.023438 -1.113281 1.484375 -1.21875 L 2.125 -1.328125 C 2.863281 -1.472656 3.347656 -1.691406 3.578125 -1.984375 C 3.804688 -2.285156 3.921875 -2.8125 3.921875 -3.5625 L 3.921875 -21.390625 C 3.921875 -22.023438 3.820312 -22.457031 3.625 -22.6875 C 3.4375 -22.914062 3.09375 -23.066406 2.59375 -23.140625 L 1.484375 -23.296875 C 1.023438 -23.335938 0.796875 -23.535156 0.796875 -23.890625 C 0.796875 -24.171875 1.078125 -24.363281 1.640625 -24.46875 C 2.742188 -24.644531 3.585938 -24.925781 4.171875 -25.3125 C 4.753906 -25.707031 5.363281 -26.1875 6 -26.75 C 6.3125 -27.070312 6.578125 -27.234375 6.796875 -27.234375 C 7.109375 -27.234375 7.265625 -27.019531 7.265625 -26.59375 L 7.265625 -23.71875 C 7.265625 -23.476562 7.367188 -23.328125 7.578125 -23.265625 C 7.796875 -23.210938 7.992188 -23.347656 8.171875 -23.671875 Z M 8.171875 -23.671875 "/></g></g></g><g fill="#e10613" fill-opacity="1"><g transform="translate(51.227818, 52.059013)"><g><path d="M 8.171875 -23.671875 C 9.617188 -26.148438 11.367188 -27.390625 13.421875 -27.390625 C 14.597656 -27.390625 15.46875 -27.039062 16.03125 -26.34375 C 16.59375 -25.65625 16.875 -24.890625 16.875 -24.046875 C 16.875 -23.367188 16.707031 -22.816406 16.375 -22.390625 C 16.039062 -21.972656 15.519531 -21.765625 14.8125 -21.765625 C 14.238281 -21.765625 13.816406 -21.894531 13.546875 -22.15625 C 13.285156 -22.425781 13.078125 -22.738281 12.921875 -23.09375 C 12.765625 -23.445312 12.578125 -23.753906 12.359375 -24.015625 C 12.148438 -24.285156 11.800781 -24.421875 11.3125 -24.421875 C 10.664062 -24.421875 10.0625 -24.039062 9.5 -23.28125 C 8.9375 -22.519531 8.46875 -21.5 8.09375 -20.21875 C 7.71875 -18.945312 7.53125 -17.5 7.53125 -15.875 L 7.53125 -3.5625 C 7.53125 -2.8125 7.644531 -2.273438 7.875 -1.953125 C 8.113281 -1.640625 8.601562 -1.445312 9.34375 -1.375 L 10.78125 -1.21875 C 11.164062 -1.144531 11.359375 -0.953125 11.359375 -0.640625 C 11.359375 -0.210938 11.09375 0 10.5625 0 L 1.59375 0 C 1.0625 0 0.796875 -0.191406 0.796875 -0.578125 C 0.796875 -0.898438 1.023438 -1.113281 1.484375 -1.21875 L 2.125 -1.328125 C 2.863281 -1.472656 3.347656 -1.691406 3.578125 -1.984375 C 3.804688 -2.285156 3.921875 -2.8125 3.921875 -3.5625 L 3.921875 -21.390625 C 3.921875 -22.023438 3.820312 -22.457031 3.625 -22.6875 C 3.4375 -22.914062 3.09375 -23.066406 2.59375 -23.140625 L 1.484375 -23.296875 C 1.023438 -23.335938 0.796875 -23.535156 0.796875 -23.890625 C 0.796875 -24.171875 1.078125 -24.363281 1.640625 -24.46875 C 2.742188 -24.644531 3.585938 -24.925781 4.171875 -25.3125 C 4.753906 -25.707031 5.363281 -26.1875 6 -26.75 C 6.3125 -27.070312 6.578125 -27.234375 6.796875 -27.234375 C 7.109375 -27.234375 7.265625 -27.019531 7.265625 -26.59375 L 7.265625 -23.71875 C 7.265625 -23.476562 7.367188 -23.328125 7.578125 -23.265625 C 7.796875 -23.210938 7.992188 -23.347656 8.171875 -23.671875 Z M 8.171875 -23.671875 "/></g></g></g><g fill="#e10613" fill-opacity="1"><g transform="translate(65.292036, 52.059013)"><g><path d="M 10.1875 0.484375 C 8.488281 0.484375 6.96875 -0.0820312 5.625 -1.21875 C 4.28125 -2.351562 3.207031 -3.953125 2.40625 -6.015625 C 1.613281 -8.085938 1.21875 -10.488281 1.21875 -13.21875 C 1.21875 -16.007812 1.625 -18.46875 2.4375 -20.59375 C 3.25 -22.71875 4.363281 -24.378906 5.78125 -25.578125 C 7.195312 -26.785156 8.773438 -27.390625 10.515625 -27.390625 C 12.597656 -27.390625 14.285156 -26.53125 15.578125 -24.8125 C 16.867188 -23.09375 17.515625 -20.304688 17.515625 -16.453125 C 17.515625 -15.285156 17.070312 -14.703125 16.1875 -14.703125 L 6.109375 -14.703125 C 5.398438 -14.703125 5.046875 -14.296875 5.046875 -13.484375 C 5.046875 -9.734375 5.59375 -6.921875 6.6875 -5.046875 C 7.78125 -3.171875 9.175781 -2.234375 10.875 -2.234375 C 12.21875 -2.234375 13.316406 -2.707031 14.171875 -3.65625 C 15.023438 -4.613281 15.710938 -6.226562 16.234375 -8.5 C 16.347656 -8.882812 16.582031 -9.078125 16.9375 -9.078125 C 17.351562 -9.078125 17.507812 -8.722656 17.40625 -8.015625 C 16.84375 -4.867188 15.941406 -2.664062 14.703125 -1.40625 C 13.460938 -0.144531 11.957031 0.484375 10.1875 0.484375 Z M 5.9375 -16.03125 L 11.3125 -16.03125 C 13.007812 -16.03125 13.859375 -16.914062 13.859375 -18.6875 C 13.859375 -20.988281 13.570312 -22.789062 13 -24.09375 C 12.4375 -25.40625 11.585938 -26.0625 10.453125 -26.0625 C 9.078125 -26.0625 7.921875 -25.265625 6.984375 -23.671875 C 6.046875 -22.078125 5.4375 -19.8125 5.15625 -16.875 C 5.082031 -16.3125 5.34375 -16.03125 5.9375 -16.03125 Z M 5.9375 -16.03125 "/></g></g></g><g fill="#e10613" fill-opacity="1"><g transform="translate(81.319941, 52.059013)"><g><path d="M 1.59375 0 C 1.0625 0 0.796875 -0.191406 0.796875 -0.578125 C 0.796875 -0.898438 1.023438 -1.113281 1.484375 -1.21875 L 2.125 -1.328125 C 2.863281 -1.472656 3.347656 -1.691406 3.578125 -1.984375 C 3.804688 -2.285156 3.921875 -2.8125 3.921875 -3.5625 L 3.921875 -21.390625 C 3.921875 -22.023438 3.820312 -22.457031 3.625 -22.6875 C 3.4375 -22.914062 3.09375 -23.066406 2.59375 -23.140625 L 1.484375 -23.296875 C 1.023438 -23.335938 0.796875 -23.535156 0.796875 -23.890625 C 0.796875 -24.171875 1.078125 -24.363281 1.640625 -24.46875 C 2.742188 -24.644531 3.585938 -24.925781 4.171875 -25.3125 C 4.753906 -25.707031 5.363281 -26.1875 6 -26.75 C 6.3125 -27.070312 6.578125 -27.234375 6.796875 -27.234375 C 7.109375 -27.234375 7.265625 -27.019531 7.265625 -26.59375 L 7.265625 -24.203125 C 7.265625 -23.878906 7.378906 -23.671875 7.609375 -23.578125 C 7.847656 -23.492188 8.109375 -23.597656 8.390625 -23.890625 C 9.804688 -25.234375 11.050781 -26.148438 12.125 -26.640625 C 13.207031 -27.140625 14.347656 -27.390625 15.546875 -27.390625 C 17.140625 -27.390625 18.414062 -26.832031 19.375 -25.71875 C 20.332031 -24.601562 20.8125 -22.96875 20.8125 -20.8125 L 20.8125 -3.5625 C 20.8125 -2.8125 20.925781 -2.285156 21.15625 -1.984375 C 21.382812 -1.691406 21.867188 -1.488281 22.609375 -1.375 L 23.78125 -1.21875 C 24.164062 -1.144531 24.359375 -0.929688 24.359375 -0.578125 C 24.359375 -0.191406 24.144531 0 23.71875 0 L 14.8125 0 C 14.3125 0 14.0625 -0.191406 14.0625 -0.578125 C 14.0625 -0.929688 14.257812 -1.144531 14.65625 -1.21875 L 15.390625 -1.328125 C 16.128906 -1.429688 16.613281 -1.640625 16.84375 -1.953125 C 17.082031 -2.273438 17.203125 -2.8125 17.203125 -3.5625 L 17.203125 -20.21875 C 17.203125 -21.957031 16.878906 -23.179688 16.234375 -23.890625 C 15.597656 -24.597656 14.695312 -24.953125 13.53125 -24.953125 C 12.40625 -24.953125 11.390625 -24.625 10.484375 -23.96875 C 9.578125 -23.3125 8.859375 -22.441406 8.328125 -21.359375 C 7.796875 -20.285156 7.53125 -19.09375 7.53125 -17.78125 L 7.53125 -3.5625 C 7.53125 -2.8125 7.644531 -2.273438 7.875 -1.953125 C 8.113281 -1.640625 8.601562 -1.445312 9.34375 -1.375 L 10.78125 -1.21875 C 11.164062 -1.144531 11.359375 -0.953125 11.359375 -0.640625 C 11.359375 -0.210938 11.09375 0 10.5625 0 Z M 1.59375 0 "/></g></g></g><g fill="#e10613" fill-opacity="1"><g transform="translate(103.45117, 52.059013)"><g><path d="M 7.796875 0.484375 C 6.554688 0.484375 5.539062 0.0507812 4.75 -0.8125 C 3.957031 -1.6875 3.5625 -3.113281 3.5625 -5.09375 L 3.5625 -24.953125 C 3.5625 -25.367188 3.347656 -25.578125 2.921875 -25.578125 L 1.375 -25.578125 C 0.8125 -25.578125 0.53125 -25.789062 0.53125 -26.21875 C 0.53125 -26.5 0.691406 -26.75 1.015625 -26.96875 C 2.179688 -27.78125 3.117188 -28.65625 3.828125 -29.59375 C 4.535156 -30.53125 5.148438 -31.8125 5.671875 -33.4375 C 5.921875 -34.175781 6.222656 -34.546875 6.578125 -34.546875 C 6.972656 -34.546875 7.171875 -34.265625 7.171875 -33.703125 L 7.171875 -27.8125 C 7.171875 -27.3125 7.414062 -27.0625 7.90625 -27.0625 L 11.359375 -27.0625 C 11.921875 -27.0625 12.203125 -26.816406 12.203125 -26.328125 C 12.203125 -25.828125 11.921875 -25.578125 11.359375 -25.578125 L 7.90625 -25.578125 C 7.414062 -25.578125 7.171875 -25.332031 7.171875 -24.84375 L 7.171875 -5.046875 C 7.171875 -4.265625 7.289062 -3.648438 7.53125 -3.203125 C 7.78125 -2.765625 8.242188 -2.546875 8.921875 -2.546875 C 9.660156 -2.546875 10.269531 -2.914062 10.75 -3.65625 C 11.226562 -4.40625 11.535156 -5.609375 11.671875 -7.265625 C 11.742188 -7.765625 11.976562 -8.015625 12.375 -8.015625 C 12.789062 -8.015625 13 -7.75 13 -7.21875 C 12.894531 -4.488281 12.335938 -2.519531 11.328125 -1.3125 C 10.316406 -0.113281 9.140625 0.484375 7.796875 0.484375 Z M 7.796875 0.484375 "/></g></g></g><g fill="#e10613" fill-opacity="1"><g transform="translate(114.384111, 52.059013)"><g><path d="M 1.0625 0 C 0.632812 0 0.421875 -0.191406 0.421875 -0.578125 C 0.421875 -0.929688 0.617188 -1.144531 1.015625 -1.21875 L 1.75 -1.328125 C 2.488281 -1.429688 3.035156 -1.640625 3.390625 -1.953125 C 3.742188 -2.273438 3.921875 -2.8125 3.921875 -3.5625 L 3.921875 -33.96875 C 3.921875 -34.601562 3.820312 -35.046875 3.625 -35.296875 C 3.4375 -35.546875 3.09375 -35.6875 2.59375 -35.71875 L 1.375 -35.875 C 0.988281 -35.945312 0.796875 -36.160156 0.796875 -36.515625 C 0.796875 -36.867188 0.988281 -37.082031 1.375 -37.15625 C 2.363281 -37.363281 3.210938 -37.609375 3.921875 -37.890625 C 4.628906 -38.179688 5.210938 -38.46875 5.671875 -38.75 C 6.242188 -39.101562 6.671875 -39.28125 6.953125 -39.28125 C 7.335938 -39.28125 7.53125 -38.992188 7.53125 -38.421875 L 7.53125 -3.5625 C 7.53125 -2.8125 7.644531 -2.285156 7.875 -1.984375 C 8.113281 -1.691406 8.601562 -1.488281 9.34375 -1.375 L 10.5625 -1.21875 C 10.945312 -1.144531 11.140625 -0.929688 11.140625 -0.578125 C 11.140625 -0.191406 10.929688 0 10.515625 0 Z M 1.0625 0 "/></g></g></g><g fill="#e10613" fill-opacity="1"><g transform="translate(122.822642, 52.059013)"><g><path d="M 4.40625 10.875 C 3.445312 10.875 2.6875 10.546875 2.125 9.890625 C 1.5625 9.242188 1.28125 8.492188 1.28125 7.640625 C 1.28125 6.972656 1.472656 6.40625 1.859375 5.9375 C 2.242188 5.476562 2.773438 5.25 3.453125 5.25 C 4.015625 5.25 4.421875 5.375 4.671875 5.625 C 4.921875 5.875 5.097656 6.15625 5.203125 6.46875 C 5.304688 6.789062 5.410156 7.078125 5.515625 7.328125 C 5.617188 7.578125 5.832031 7.703125 6.15625 7.703125 C 6.539062 7.703125 6.894531 7.425781 7.21875 6.875 C 7.539062 6.320312 7.984375 5.160156 8.546875 3.390625 C 8.898438 2.328125 9.117188 1.40625 9.203125 0.625 C 9.296875 -0.144531 9.28125 -0.972656 9.15625 -1.859375 C 9.03125 -2.742188 8.753906 -3.820312 8.328125 -5.09375 L 2.546875 -23.515625 C 2.296875 -24.359375 2.054688 -24.90625 1.828125 -25.15625 C 1.597656 -25.40625 1.238281 -25.582031 0.75 -25.6875 L -0.046875 -25.84375 C -0.515625 -25.957031 -0.75 -26.191406 -0.75 -26.546875 C -0.75 -26.890625 -0.5 -27.0625 0 -27.0625 L 8.765625 -27.0625 C 9.253906 -27.0625 9.5 -26.890625 9.5 -26.546875 C 9.5 -26.148438 9.269531 -25.914062 8.8125 -25.84375 L 7.96875 -25.75 C 7.113281 -25.632812 6.570312 -25.425781 6.34375 -25.125 C 6.113281 -24.832031 6.125 -24.296875 6.375 -23.515625 L 11.046875 -7.96875 C 11.148438 -7.613281 11.316406 -7.4375 11.546875 -7.4375 C 11.773438 -7.4375 11.941406 -7.613281 12.046875 -7.96875 L 16.5625 -22.5625 C 16.84375 -23.507812 16.921875 -24.222656 16.796875 -24.703125 C 16.671875 -25.179688 16.164062 -25.492188 15.28125 -25.640625 L 14.171875 -25.84375 C 13.710938 -25.957031 13.484375 -26.191406 13.484375 -26.546875 C 13.484375 -26.890625 13.726562 -27.0625 14.21875 -27.0625 L 20.96875 -27.0625 C 21.457031 -27.0625 21.703125 -26.867188 21.703125 -26.484375 C 21.703125 -26.128906 21.492188 -25.882812 21.078125 -25.75 L 20.59375 -25.578125 C 20.0625 -25.398438 19.617188 -25.082031 19.265625 -24.625 C 18.910156 -24.164062 18.539062 -23.367188 18.15625 -22.234375 L 10.25 2.4375 C 9.46875 4.914062 8.765625 6.753906 8.140625 7.953125 C 7.523438 9.160156 6.929688 9.945312 6.359375 10.3125 C 5.796875 10.6875 5.144531 10.875 4.40625 10.875 Z M 4.40625 10.875 "/></g></g></g><g fill="#e10613" fill-opacity="1"><g transform="translate(141.291871, 52.059013)"><g/></g></g><g fill="#e10613" fill-opacity="1"><g transform="translate(147.501368, 52.059013)"><g><path d="M 10.9375 0.484375 C 9.488281 0.484375 8.085938 0.0195312 6.734375 -0.90625 C 5.960938 -1.4375 5.257812 -1.296875 4.625 -0.484375 C 4.269531 -0.0859375 4.003906 0.171875 3.828125 0.296875 C 3.648438 0.421875 3.472656 0.484375 3.296875 0.484375 C 2.898438 0.484375 2.753906 0.234375 2.859375 -0.265625 C 3.003906 -1.078125 3.113281 -2.117188 3.1875 -3.390625 C 3.257812 -4.671875 3.296875 -6.375 3.296875 -8.5 L 3.296875 -33.96875 C 3.296875 -34.601562 3.195312 -35.035156 3 -35.265625 C 2.800781 -35.492188 2.457031 -35.644531 1.96875 -35.71875 L 0.84375 -35.875 C 0.457031 -35.945312 0.265625 -36.160156 0.265625 -36.515625 C 0.265625 -36.867188 0.457031 -37.082031 0.84375 -37.15625 C 1.832031 -37.363281 2.664062 -37.609375 3.34375 -37.890625 C 4.019531 -38.179688 4.585938 -38.46875 5.046875 -38.75 C 5.609375 -39.101562 6.03125 -39.28125 6.3125 -39.28125 C 6.707031 -39.28125 6.90625 -38.992188 6.90625 -38.421875 L 6.90625 -25.3125 C 6.90625 -25.03125 7.019531 -24.84375 7.25 -24.75 C 7.476562 -24.664062 7.734375 -24.765625 8.015625 -25.046875 C 9.535156 -26.609375 11.195312 -27.390625 13 -27.390625 C 14.632812 -27.390625 16.078125 -26.847656 17.328125 -25.765625 C 18.585938 -24.691406 19.578125 -23.195312 20.296875 -21.28125 C 21.023438 -19.375 21.390625 -17.128906 21.390625 -14.546875 C 21.390625 -11.609375 20.925781 -9.003906 20 -6.734375 C 19.082031 -4.472656 17.835938 -2.703125 16.265625 -1.421875 C 14.691406 -0.148438 12.914062 0.484375 10.9375 0.484375 Z M 10.828125 -0.84375 C 12.804688 -0.84375 14.40625 -2.007812 15.625 -4.34375 C 16.851562 -6.6875 17.46875 -9.835938 17.46875 -13.796875 C 17.46875 -17.441406 16.9375 -20.21875 15.875 -22.125 C 14.8125 -24.039062 13.304688 -25 11.359375 -25 C 10.148438 -25 9.101562 -24.503906 8.21875 -23.515625 C 7.34375 -22.523438 6.90625 -21.144531 6.90625 -19.375 L 6.90625 -6 C 6.90625 -4.40625 7.265625 -3.144531 7.984375 -2.21875 C 8.710938 -1.300781 9.660156 -0.84375 10.828125 -0.84375 Z M 10.828125 -0.84375 "/></g></g></g><g fill="#e10613" fill-opacity="1"><g transform="translate(168.199646, 52.059013)"><g><path d="M 9.078125 0.484375 C 8.191406 0.484375 7.34375 0.289062 6.53125 -0.09375 C 5.71875 -0.488281 5.046875 -1.109375 4.515625 -1.953125 C 3.984375 -2.804688 3.71875 -3.941406 3.71875 -5.359375 L 3.71875 -23.828125 C 3.71875 -24.460938 3.617188 -24.90625 3.421875 -25.15625 C 3.222656 -25.40625 2.878906 -25.546875 2.390625 -25.578125 L 1.484375 -25.6875 C 0.878906 -25.757812 0.578125 -25.988281 0.578125 -26.375 C 0.578125 -26.832031 0.914062 -27.0625 1.59375 -27.0625 L 6.53125 -27.0625 C 7.0625 -27.0625 7.328125 -26.800781 7.328125 -26.28125 L 7.328125 -6.46875 C 7.328125 -4.84375 7.632812 -3.6875 8.25 -3 C 8.875 -2.3125 9.734375 -1.96875 10.828125 -1.96875 C 11.921875 -1.96875 12.890625 -2.273438 13.734375 -2.890625 C 14.585938 -3.515625 15.269531 -4.347656 15.78125 -5.390625 C 16.300781 -6.429688 16.5625 -7.570312 16.5625 -8.8125 L 16.5625 -23.828125 C 16.5625 -24.460938 16.460938 -24.90625 16.265625 -25.15625 C 16.066406 -25.40625 15.722656 -25.546875 15.234375 -25.578125 L 14.328125 -25.6875 C 13.722656 -25.757812 13.421875 -25.988281 13.421875 -26.375 C 13.421875 -26.832031 13.757812 -27.0625 14.4375 -27.0625 L 19.375 -27.0625 C 19.90625 -27.0625 20.171875 -26.800781 20.171875 -26.28125 L 20.171875 -5.671875 C 20.171875 -5.035156 20.265625 -4.601562 20.453125 -4.375 C 20.648438 -4.144531 21 -3.992188 21.5 -3.921875 L 22.609375 -3.765625 C 23.066406 -3.734375 23.296875 -3.554688 23.296875 -3.234375 C 23.296875 -2.921875 23.015625 -2.707031 22.453125 -2.59375 C 21.359375 -2.457031 20.484375 -2.175781 19.828125 -1.75 C 19.171875 -1.320312 18.59375 -0.8125 18.09375 -0.21875 C 17.78125 0.101562 17.515625 0.265625 17.296875 0.265625 C 16.984375 0.265625 16.828125 0.0507812 16.828125 -0.375 L 16.828125 -2.8125 C 16.828125 -3.09375 16.726562 -3.257812 16.53125 -3.3125 C 16.332031 -3.363281 16.128906 -3.285156 15.921875 -3.078125 C 14.609375 -1.765625 13.445312 -0.84375 12.4375 -0.3125 C 11.4375 0.21875 10.316406 0.484375 9.078125 0.484375 Z M 9.078125 0.484375 "/></g></g></g><g fill="#e10613" fill-opacity="1"><g transform="translate(189.481719, 52.059013)"><g><path d="M 6.046875 -32.109375 C 5.304688 -32.109375 4.675781 -32.375 4.15625 -32.90625 C 3.644531 -33.4375 3.390625 -34.109375 3.390625 -34.921875 C 3.390625 -35.734375 3.644531 -36.394531 4.15625 -36.90625 C 4.675781 -37.425781 5.304688 -37.6875 6.046875 -37.6875 C 6.796875 -37.6875 7.414062 -37.425781 7.90625 -36.90625 C 8.40625 -36.394531 8.65625 -35.734375 8.65625 -34.921875 C 8.65625 -34.109375 8.40625 -33.4375 7.90625 -32.90625 C 7.414062 -32.375 6.796875 -32.109375 6.046875 -32.109375 Z M 1.59375 0 C 1.0625 0 0.796875 -0.191406 0.796875 -0.578125 C 0.796875 -0.898438 1.023438 -1.113281 1.484375 -1.21875 L 2.125 -1.328125 C 3.007812 -1.472656 3.570312 -1.691406 3.8125 -1.984375 C 4.0625 -2.285156 4.1875 -2.8125 4.1875 -3.5625 L 4.1875 -21.390625 C 4.1875 -22.023438 4.085938 -22.457031 3.890625 -22.6875 C 3.703125 -22.914062 3.359375 -23.066406 2.859375 -23.140625 L 1.75 -23.296875 C 1.289062 -23.335938 1.0625 -23.535156 1.0625 -23.890625 C 1.0625 -24.171875 1.34375 -24.363281 1.90625 -24.46875 C 3.007812 -24.644531 3.894531 -24.925781 4.5625 -25.3125 C 5.238281 -25.707031 5.894531 -26.1875 6.53125 -26.75 C 6.84375 -27.070312 7.109375 -27.234375 7.328125 -27.234375 C 7.640625 -27.234375 7.796875 -27.019531 7.796875 -26.59375 L 7.796875 -3.5625 C 7.796875 -2.8125 7.898438 -2.273438 8.109375 -1.953125 C 8.328125 -1.640625 8.738281 -1.445312 9.34375 -1.375 L 10.671875 -1.21875 C 11.054688 -1.144531 11.25 -0.953125 11.25 -0.640625 C 11.25 -0.210938 10.984375 0 10.453125 0 Z M 1.59375 0 "/></g></g></g><g fill="#e10613" fill-opacity="1"><g transform="translate(198.504044, 52.059013)"><g><path d="M 1.0625 0 C 0.632812 0 0.421875 -0.191406 0.421875 -0.578125 C 0.421875 -0.929688 0.617188 -1.144531 1.015625 -1.21875 L 1.75 -1.328125 C 2.488281 -1.429688 3.035156 -1.640625 3.390625 -1.953125 C 3.742188 -2.273438 3.921875 -2.8125 3.921875 -3.5625 L 3.921875 -33.96875 C 3.921875 -34.601562 3.820312 -35.046875 3.625 -35.296875 C 3.4375 -35.546875 3.09375 -35.6875 2.59375 -35.71875 L 1.375 -35.875 C 0.988281 -35.945312 0.796875 -36.160156 0.796875 -36.515625 C 0.796875 -36.867188 0.988281 -37.082031 1.375 -37.15625 C 2.363281 -37.363281 3.210938 -37.609375 3.921875 -37.890625 C 4.628906 -38.179688 5.210938 -38.46875 5.671875 -38.75 C 6.242188 -39.101562 6.671875 -39.28125 6.953125 -39.28125 C 7.335938 -39.28125 7.53125 -38.992188 7.53125 -38.421875 L 7.53125 -3.5625 C 7.53125 -2.8125 7.644531 -2.285156 7.875 -1.984375 C 8.113281 -1.691406 8.601562 -1.488281 9.34375 -1.375 L 10.5625 -1.21875 C 10.945312 -1.144531 11.140625 -0.929688 11.140625 -0.578125 C 11.140625 -0.191406 10.929688 0 10.515625 0 Z M 1.0625 0 "/></g></g></g><g fill="#e10613" fill-opacity="1"><g transform="translate(207.367153, 52.059013)"><g><path d="M 9.609375 0.484375 C 8.046875 0.484375 6.65625 -0.0546875 5.4375 -1.140625 C 4.21875 -2.222656 3.269531 -3.726562 2.59375 -5.65625 C 1.925781 -7.582031 1.59375 -9.820312 1.59375 -12.375 C 1.59375 -15.34375 2.050781 -17.945312 2.96875 -20.1875 C 3.894531 -22.4375 5.171875 -24.195312 6.796875 -25.46875 C 8.421875 -26.75 10.257812 -27.390625 12.3125 -27.390625 C 12.8125 -27.390625 13.304688 -27.34375 13.796875 -27.25 C 14.296875 -27.164062 14.773438 -27.015625 15.234375 -26.796875 C 15.796875 -26.515625 16.078125 -26.640625 16.078125 -27.171875 L 16.078125 -33.96875 C 16.078125 -34.601562 15.976562 -35.046875 15.78125 -35.296875 C 15.59375 -35.546875 15.25 -35.6875 14.75 -35.71875 L 13.375 -35.875 C 12.988281 -35.945312 12.796875 -36.160156 12.796875 -36.515625 C 12.796875 -36.867188 12.988281 -37.082031 13.375 -37.15625 C 14.507812 -37.363281 15.421875 -37.609375 16.109375 -37.890625 C 16.796875 -38.179688 17.367188 -38.46875 17.828125 -38.75 C 18.398438 -39.101562 18.828125 -39.28125 19.109375 -39.28125 C 19.492188 -39.28125 19.6875 -38.992188 19.6875 -38.421875 L 19.6875 -5.046875 C 19.6875 -3.554688 20.0625 -2.8125 20.8125 -2.8125 C 21.269531 -2.8125 21.691406 -3.117188 22.078125 -3.734375 C 22.472656 -4.359375 22.671875 -5.414062 22.671875 -6.90625 C 22.671875 -7.46875 22.898438 -7.75 23.359375 -7.75 C 23.773438 -7.75 23.984375 -7.445312 23.984375 -6.84375 C 23.984375 -4.257812 23.539062 -2.390625 22.65625 -1.234375 C 21.78125 -0.0859375 20.773438 0.484375 19.640625 0.484375 C 18.609375 0.484375 17.828125 0.140625 17.296875 -0.546875 C 16.765625 -1.242188 16.410156 -2.070312 16.234375 -3.03125 C 16.203125 -3.3125 16.078125 -3.457031 15.859375 -3.46875 C 15.648438 -3.488281 15.457031 -3.359375 15.28125 -3.078125 C 14.289062 -1.703125 13.390625 -0.765625 12.578125 -0.265625 C 11.765625 0.234375 10.773438 0.484375 9.609375 0.484375 Z M 10.78125 -1.96875 C 11.695312 -1.96875 12.550781 -2.273438 13.34375 -2.890625 C 14.144531 -3.515625 14.800781 -4.351562 15.3125 -5.40625 C 15.820312 -6.46875 16.078125 -7.65625 16.078125 -8.96875 L 16.078125 -20.90625 C 16.078125 -22.5 15.710938 -23.753906 14.984375 -24.671875 C 14.265625 -25.597656 13.320312 -26.0625 12.15625 -26.0625 C 10.175781 -26.0625 8.570312 -24.898438 7.34375 -22.578125 C 6.125 -20.265625 5.515625 -17.109375 5.515625 -13.109375 C 5.515625 -9.460938 5.984375 -6.691406 6.921875 -4.796875 C 7.859375 -2.910156 9.144531 -1.96875 10.78125 -1.96875 Z M 10.78125 -1.96875 "/></g></g></g><g fill="#e10613" fill-opacity="1"><g transform="translate(228.808442, 52.059013)"><g><path d="M 6.046875 -32.109375 C 5.304688 -32.109375 4.675781 -32.375 4.15625 -32.90625 C 3.644531 -33.4375 3.390625 -34.109375 3.390625 -34.921875 C 3.390625 -35.734375 3.644531 -36.394531 4.15625 -36.90625 C 4.675781 -37.425781 5.304688 -37.6875 6.046875 -37.6875 C 6.796875 -37.6875 7.414062 -37.425781 7.90625 -36.90625 C 8.40625 -36.394531 8.65625 -35.734375 8.65625 -34.921875 C 8.65625 -34.109375 8.40625 -33.4375 7.90625 -32.90625 C 7.414062 -32.375 6.796875 -32.109375 6.046875 -32.109375 Z M 1.59375 0 C 1.0625 0 0.796875 -0.191406 0.796875 -0.578125 C 0.796875 -0.898438 1.023438 -1.113281 1.484375 -1.21875 L 2.125 -1.328125 C 3.007812 -1.472656 3.570312 -1.691406 3.8125 -1.984375 C 4.0625 -2.285156 4.1875 -2.8125 4.1875 -3.5625 L 4.1875 -21.390625 C 4.1875 -22.023438 4.085938 -22.457031 3.890625 -22.6875 C 3.703125 -22.914062 3.359375 -23.066406 2.859375 -23.140625 L 1.75 -23.296875 C 1.289062 -23.335938 1.0625 -23.535156 1.0625 -23.890625 C 1.0625 -24.171875 1.34375 -24.363281 1.90625 -24.46875 C 3.007812 -24.644531 3.894531 -24.925781 4.5625 -25.3125 C 5.238281 -25.707031 5.894531 -26.1875 6.53125 -26.75 C 6.84375 -27.070312 7.109375 -27.234375 7.328125 -27.234375 C 7.640625 -27.234375 7.796875 -27.019531 7.796875 -26.59375 L 7.796875 -3.5625 C 7.796875 -2.8125 7.898438 -2.273438 8.109375 -1.953125 C 8.328125 -1.640625 8.738281 -1.445312 9.34375 -1.375 L 10.671875 -1.21875 C 11.054688 -1.144531 11.25 -0.953125 11.25 -0.640625 C 11.25 -0.210938 10.984375 0 10.453125 0 Z M 1.59375 0 "/></g></g></g><g fill="#e10613" fill-opacity="1"><g transform="translate(237.830768, 52.059013)"><g><path d="M 1.59375 0 C 1.0625 0 0.796875 -0.191406 0.796875 -0.578125 C 0.796875 -0.898438 1.023438 -1.113281 1.484375 -1.21875 L 2.125 -1.328125 C 2.863281 -1.472656 3.347656 -1.691406 3.578125 -1.984375 C 3.804688 -2.285156 3.921875 -2.8125 3.921875 -3.5625 L 3.921875 -21.390625 C 3.921875 -22.023438 3.820312 -22.457031 3.625 -22.6875 C 3.4375 -22.914062 3.09375 -23.066406 2.59375 -23.140625 L 1.484375 -23.296875 C 1.023438 -23.335938 0.796875 -23.535156 0.796875 -23.890625 C 0.796875 -24.171875 1.078125 -24.363281 1.640625 -24.46875 C 2.742188 -24.644531 3.585938 -24.925781 4.171875 -25.3125 C 4.753906 -25.707031 5.363281 -26.1875 6 -26.75 C 6.3125 -27.070312 6.578125 -27.234375 6.796875 -27.234375 C 7.109375 -27.234375 7.265625 -27.019531 7.265625 -26.59375 L 7.265625 -24.203125 C 7.265625 -23.878906 7.378906 -23.671875 7.609375 -23.578125 C 7.847656 -23.492188 8.109375 -23.597656 8.390625 -23.890625 C 9.804688 -25.234375 11.050781 -26.148438 12.125 -26.640625 C 13.207031 -27.140625 14.347656 -27.390625 15.546875 -27.390625 C 17.140625 -27.390625 18.414062 -26.832031 19.375 -25.71875 C 20.332031 -24.601562 20.8125 -22.96875 20.8125 -20.8125 L 20.8125 -3.5625 C 20.8125 -2.8125 20.925781 -2.285156 21.15625 -1.984375 C 21.382812 -1.691406 21.867188 -1.488281 22.609375 -1.375 L 23.78125 -1.21875 C 24.164062 -1.144531 24.359375 -0.929688 24.359375 -0.578125 C 24.359375 -0.191406 24.144531 0 23.71875 0 L 14.8125 0 C 14.3125 0 14.0625 -0.191406 14.0625 -0.578125 C 14.0625 -0.929688 14.257812 -1.144531 14.65625 -1.21875 L 15.390625 -1.328125 C 16.128906 -1.429688 16.613281 -1.640625 16.84375 -1.953125 C 17.082031 -2.273438 17.203125 -2.8125 17.203125 -3.5625 L 17.203125 -20.21875 C 17.203125 -21.957031 16.878906 -23.179688 16.234375 -23.890625 C 15.597656 -24.597656 14.695312 -24.953125 13.53125 -24.953125 C 12.40625 -24.953125 11.390625 -24.625 10.484375 -23.96875 C 9.578125 -23.3125 8.859375 -22.441406 8.328125 -21.359375 C 7.796875 -20.285156 7.53125 -19.09375 7.53125 -17.78125 L 7.53125 -3.5625 C 7.53125 -2.8125 7.644531 -2.273438 7.875 -1.953125 C 8.113281 -1.640625 8.601562 -1.445312 9.34375 -1.375 L 10.78125 -1.21875 C 11.164062 -1.144531 11.359375 -0.953125 11.359375 -0.640625 C 11.359375 -0.210938 11.09375 0 10.5625 0 Z M 1.59375 0 "/></g></g></g><g fill="#e10613" fill-opacity="1"><g transform="translate(259.961996, 52.059013)"><g><path d="M 9.453125 11.40625 C 6.753906 11.40625 4.628906 10.863281 3.078125 9.78125 C 1.523438 8.707031 0.75 7.410156 0.75 5.890625 C 0.75 5.253906 0.835938 4.675781 1.015625 4.15625 C 1.191406 3.644531 1.570312 3.050781 2.15625 2.375 C 2.738281 1.707031 3.628906 0.84375 4.828125 -0.21875 C 5.253906 -0.601562 5.46875 -0.960938 5.46875 -1.296875 C 5.46875 -1.628906 5.253906 -1.882812 4.828125 -2.0625 C 3.554688 -2.59375 2.796875 -3.273438 2.546875 -4.109375 C 2.296875 -4.941406 2.597656 -5.710938 3.453125 -6.421875 L 7.265625 -9.71875 C 7.691406 -10.070312 7.675781 -10.367188 7.21875 -10.609375 C 5.769531 -11.316406 4.617188 -12.414062 3.765625 -13.90625 C 2.921875 -15.394531 2.5 -16.988281 2.5 -18.6875 C 2.5 -20.3125 2.851562 -21.773438 3.5625 -23.078125 C 4.269531 -24.390625 5.222656 -25.4375 6.421875 -26.21875 C 7.628906 -27 8.972656 -27.390625 10.453125 -27.390625 C 11.304688 -27.390625 12.117188 -27.25 12.890625 -26.96875 C 13.390625 -26.789062 13.691406 -26.945312 13.796875 -27.4375 C 14.117188 -28.78125 14.710938 -29.832031 15.578125 -30.59375 C 16.441406 -31.351562 17.300781 -31.734375 18.15625 -31.734375 C 18.96875 -31.734375 19.628906 -31.492188 20.140625 -31.015625 C 20.648438 -30.546875 20.90625 -29.957031 20.90625 -29.25 C 20.90625 -28.644531 20.726562 -28.164062 20.375 -27.8125 C 20.019531 -27.457031 19.582031 -27.28125 19.0625 -27.28125 C 18.59375 -27.28125 18.253906 -27.367188 18.046875 -27.546875 C 17.835938 -27.722656 17.644531 -27.898438 17.46875 -28.078125 C 17.289062 -28.253906 17.003906 -28.34375 16.609375 -28.34375 C 15.765625 -28.34375 15.234375 -27.882812 15.015625 -26.96875 C 14.910156 -26.613281 14.921875 -26.3125 15.046875 -26.0625 C 15.171875 -25.8125 15.359375 -25.5625 15.609375 -25.3125 C 16.453125 -24.5 17.113281 -23.507812 17.59375 -22.34375 C 18.070312 -21.175781 18.3125 -19.882812 18.3125 -18.46875 C 18.3125 -16.769531 17.960938 -15.25 17.265625 -13.90625 C 16.578125 -12.5625 15.640625 -11.5 14.453125 -10.71875 C 13.273438 -9.9375 11.941406 -9.546875 10.453125 -9.546875 C 9.816406 -9.546875 9.269531 -9.414062 8.8125 -9.15625 C 8.351562 -8.894531 7.894531 -8.515625 7.4375 -8.015625 L 6.53125 -7 C 6.070312 -6.4375 5.9375 -5.898438 6.125 -5.390625 C 6.320312 -4.878906 6.8125 -4.625 7.59375 -4.625 L 12.15625 -4.625 C 14.695312 -4.625 16.710938 -3.992188 18.203125 -2.734375 C 19.691406 -1.472656 20.4375 0.25 20.4375 2.4375 C 20.4375 4.175781 19.941406 5.71875 18.953125 7.0625 C 17.960938 8.40625 16.644531 9.460938 15 10.234375 C 13.351562 11.015625 11.503906 11.40625 9.453125 11.40625 Z M 10.40625 -10.875 C 11.675781 -10.875 12.679688 -11.5625 13.421875 -12.9375 C 14.171875 -14.320312 14.546875 -16.203125 14.546875 -18.578125 C 14.546875 -20.878906 14.164062 -22.726562 13.40625 -24.125 C 12.644531 -25.519531 11.644531 -26.21875 10.40625 -26.21875 C 9.164062 -26.21875 8.164062 -25.519531 7.40625 -24.125 C 6.644531 -22.726562 6.265625 -20.878906 6.265625 -18.578125 C 6.265625 -16.203125 6.632812 -14.320312 7.375 -12.9375 C 8.125 -11.5625 9.132812 -10.875 10.40625 -10.875 Z M 10.078125 10.25 C 11.359375 10.25 12.53125 9.960938 13.59375 9.390625 C 14.65625 8.828125 15.492188 8.039062 16.109375 7.03125 C 16.722656 6.019531 17.03125 4.878906 17.03125 3.609375 C 17.03125 2.015625 16.5625 0.785156 15.625 -0.078125 C 14.6875 -0.941406 13.367188 -1.375 11.671875 -1.375 L 10.453125 -1.375 C 9.359375 -1.375 8.535156 -1.269531 7.984375 -1.0625 C 7.441406 -0.851562 6.921875 -0.484375 6.421875 0.046875 C 5.328125 1.210938 4.632812 2.148438 4.34375 2.859375 C 4.0625 3.566406 3.921875 4.296875 3.921875 5.046875 C 3.921875 6.597656 4.460938 7.851562 5.546875 8.8125 C 6.628906 9.769531 8.140625 10.25 10.078125 10.25 Z M 10.078125 10.25 "/></g></g></g></g></g></svg>