<svg xmlns="http://www.w3.org/2000/svg" xmlns:xlink="http://www.w3.org/1999/xlink" width="1200" zoomAndPan="magnify" viewBox="0 0 900 119.999999" height="160" preserveAspectRatio="xMidYMid meet" version="1.0"><defs><g/><clipPath id="ed094a5e9d"><rect x="0" width="156" y="0" height="70"/></clipPath></defs><g transform="matrix(1, 0, 0, 1, 372, 25)"><g clip-path="url(#ed094a5e9d)"><g fill="#e10613" fill-opacity="1"><g transform="translate(0.514116, 52.059013)"><g><path d="M 1.4375 0 C 1.007812 0 0.796875 -0.191406 0.796875 -0.578125 C 0.796875 -0.929688 0.988281 -1.144531 1.375 -1.21875 L 2.125 -1.328125 C 2.863281 -1.429688 3.347656 -1.640625 3.578125 -1.953125 C 3.804688 -2.273438 3.921875 -2.8125 3.921875 -3.5625 L 3.921875 -33.96875 C 3.921875 -34.601562 3.820312 -35.035156 3.625 -35.265625 C 3.4375 -35.492188 3.09375 -35.644531 2.59375 -35.71875 L 1.484375 -35.875 C 1.097656 -35.945312 0.90625 -36.160156 0.90625 -36.515625 C 0.90625 -36.867188 1.097656 -37.082031 1.484375 -37.15625 C 2.472656 -37.363281 3.300781 -37.609375 3.96875 -37.890625 C 4.644531 -38.179688 5.210938 -38.46875 5.671875 -38.75 C 6.242188 -39.101562 6.671875 -39.28125 6.953125 -39.28125 C 7.335938 -39.28125 7.53125 -38.992188 7.53125 -38.421875 L 7.53125 -24.359375 C 7.53125 -24.046875 7.632812 -23.859375 7.84375 -23.796875 C 8.0625 -23.742188 8.332031 -23.863281 8.65625 -24.15625 C 10 -25.394531 11.179688 -26.242188 12.203125 -26.703125 C 13.234375 -27.160156 14.316406 -27.390625 15.453125 -27.390625 C 17.109375 -27.390625 18.414062 -26.832031 19.375 -25.71875 C 20.332031 -24.601562 20.8125 -22.96875 20.8125 -20.8125 L 20.8125 -3.5625 C 20.8125 -2.8125 20.925781 -2.285156 21.15625 -1.984375 C 21.382812 -1.691406 21.867188 -1.488281 22.609375 -1.375 L 23.78125 -1.21875 C 24.164062 -1.144531 24.359375 -0.929688 24.359375 -0.578125 C 24.359375 -0.191406 24.144531 0 23.71875 0 L 14.8125 0 C 14.3125 0 14.0625 -0.191406 14.0625 -0.578125 C 14.0625 -0.929688 14.257812 -1.144531 14.65625 -1.21875 L 15.390625 -1.328125 C 16.128906 -1.429688 16.613281 -1.640625 16.84375 -1.953125 C 17.082031 -2.273438 17.203125 -2.8125 17.203125 -3.5625 L 17.203125 -20.21875 C 17.203125 -21.957031 16.878906 -23.179688 16.234375 -23.890625 C 15.597656 -24.597656 14.695312 -24.953125 13.53125 -24.953125 C 12.40625 -24.953125 11.390625 -24.625 10.484375 -23.96875 C 9.578125 -23.3125 8.859375 -22.441406 8.328125 -21.359375 C 7.796875 -20.285156 7.53125 -19.09375 7.53125 -17.78125 L 7.53125 -3.5625 C 7.53125 -2.8125 7.644531 -2.273438 7.875 -1.953125 C 8.113281 -1.640625 8.601562 -1.445312 9.34375 -1.375 L 10.78125 -1.21875 C 11.164062 -1.144531 11.359375 -0.929688 11.359375 -0.578125 C 11.359375 -0.191406 11.144531 0 10.71875 0 Z M 1.4375 0 "/></g></g></g><g fill="#e10613" fill-opacity="1"><g transform="translate(22.645345, 52.059013)"><g><path d="M 6.375 0.484375 C 4.882812 0.484375 3.660156 0.015625 2.703125 -0.921875 C 1.753906 -1.859375 1.28125 -3.109375 1.28125 -4.671875 C 1.28125 -6.191406 1.753906 -7.632812 2.703125 -9 C 3.660156 -10.363281 4.96875 -11.59375 6.625 -12.6875 C 8.289062 -13.78125 10.1875 -14.664062 12.3125 -15.34375 C 12.769531 -15.476562 13 -15.773438 13 -16.234375 L 13 -21.078125 C 13 -22.773438 12.734375 -23.984375 12.203125 -24.703125 C 11.671875 -25.429688 10.945312 -25.796875 10.03125 -25.796875 C 9.144531 -25.796875 8.335938 -25.394531 7.609375 -24.59375 C 6.890625 -23.800781 6.367188 -22.46875 6.046875 -20.59375 C 5.867188 -19.457031 5.488281 -18.632812 4.90625 -18.125 C 4.320312 -17.613281 3.726562 -17.359375 3.125 -17.359375 C 2.132812 -17.359375 1.640625 -17.851562 1.640625 -18.84375 C 1.640625 -19.863281 1.929688 -20.878906 2.515625 -21.890625 C 3.097656 -22.898438 3.867188 -23.820312 4.828125 -24.65625 C 5.785156 -25.488281 6.828125 -26.148438 7.953125 -26.640625 C 9.085938 -27.140625 10.222656 -27.390625 11.359375 -27.390625 C 14.859375 -27.390625 16.609375 -25.351562 16.609375 -21.28125 L 16.609375 -5.046875 C 16.609375 -3.554688 16.984375 -2.8125 17.734375 -2.8125 C 18.191406 -2.8125 18.613281 -3.117188 19 -3.734375 C 19.382812 -4.359375 19.578125 -5.414062 19.578125 -6.90625 C 19.578125 -7.46875 19.8125 -7.75 20.28125 -7.75 C 20.695312 -7.75 20.90625 -7.445312 20.90625 -6.84375 C 20.90625 -4.257812 20.453125 -2.390625 19.546875 -1.234375 C 18.648438 -0.0859375 17.632812 0.484375 16.5 0.484375 C 15.65625 0.484375 14.984375 0.140625 14.484375 -0.546875 C 13.992188 -1.242188 13.660156 -2.070312 13.484375 -3.03125 C 13.441406 -3.382812 13.285156 -3.566406 13.015625 -3.578125 C 12.753906 -3.597656 12.503906 -3.429688 12.265625 -3.078125 C 11.410156 -1.910156 10.539062 -1.023438 9.65625 -0.421875 C 8.769531 0.179688 7.675781 0.484375 6.375 0.484375 Z M 7.796875 -1.96875 C 8.722656 -1.96875 9.570312 -2.289062 10.34375 -2.9375 C 11.125 -3.59375 11.757812 -4.46875 12.25 -5.5625 C 12.75 -6.664062 13 -7.90625 13 -9.28125 L 13 -13.15625 C 13 -13.832031 12.628906 -14.03125 11.890625 -13.75 C 9.734375 -12.96875 8.0625 -11.894531 6.875 -10.53125 C 5.6875 -9.175781 5.09375 -7.539062 5.09375 -5.625 C 5.09375 -3.1875 5.992188 -1.96875 7.796875 -1.96875 Z M 7.796875 -1.96875 "/></g></g></g><g fill="#e10613" fill-opacity="1"><g transform="translate(41.008429, 52.059013)"><g><path d="M 8.171875 -23.671875 C 9.617188 -26.148438 11.367188 -27.390625 13.421875 -27.390625 C 14.597656 -27.390625 15.46875 -27.039062 16.03125 -26.34375 C 16.59375 -25.65625 16.875 -24.890625 16.875 -24.046875 C 16.875 -23.367188 16.707031 -22.816406 16.375 -22.390625 C 16.039062 -21.972656 15.519531 -21.765625 14.8125 -21.765625 C 14.238281 -21.765625 13.816406 -21.894531 13.546875 -22.15625 C 13.285156 -22.425781 13.078125 -22.738281 12.921875 -23.09375 C 12.765625 -23.445312 12.578125 -23.753906 12.359375 -24.015625 C 12.148438 -24.285156 11.800781 -24.421875 11.3125 -24.421875 C 10.664062 -24.421875 10.0625 -24.039062 9.5 -23.28125 C 8.9375 -22.519531 8.46875 -21.5 8.09375 -20.21875 C 7.71875 -18.945312 7.53125 -17.5 7.53125 -15.875 L 7.53125 -3.5625 C 7.53125 -2.8125 7.644531 -2.273438 7.875 -1.953125 C 8.113281 -1.640625 8.601562 -1.445312 9.34375 -1.375 L 10.78125 -1.21875 C 11.164062 -1.144531 11.359375 -0.953125 11.359375 -0.640625 C 11.359375 -0.210938 11.09375 0 10.5625 0 L 1.59375 0 C 1.0625 0 0.796875 -0.191406 0.796875 -0.578125 C 0.796875 -0.898438 1.023438 -1.113281 1.484375 -1.21875 L 2.125 -1.328125 C 2.863281 -1.472656 3.347656 -1.691406 3.578125 -1.984375 C 3.804688 -2.285156 3.921875 -2.8125 3.921875 -3.5625 L 3.921875 -21.390625 C 3.921875 -22.023438 3.820312 -22.457031 3.625 -22.6875 C 3.4375 -22.914062 3.09375 -23.066406 2.59375 -23.140625 L 1.484375 -23.296875 C 1.023438 -23.335938 0.796875 -23.535156 0.796875 -23.890625 C 0.796875 -24.171875 1.078125 -24.363281 1.640625 -24.46875 C 2.742188 -24.644531 3.585938 -24.925781 4.171875 -25.3125 C 4.753906 -25.707031 5.363281 -26.1875 6 -26.75 C 6.3125 -27.070312 6.578125 -27.234375 6.796875 -27.234375 C 7.109375 -27.234375 7.265625 -27.019531 7.265625 -26.59375 L 7.265625 -23.71875 C 7.265625 -23.476562 7.367188 -23.328125 7.578125 -23.265625 C 7.796875 -23.210938 7.992188 -23.347656 8.171875 -23.671875 Z M 8.171875 -23.671875 "/></g></g></g><g fill="#e10613" fill-opacity="1"><g transform="translate(55.072647, 52.059013)"><g><path d="M 9.609375 0.484375 C 8.046875 0.484375 6.65625 -0.0546875 5.4375 -1.140625 C 4.21875 -2.222656 3.269531 -3.726562 2.59375 -5.65625 C 1.925781 -7.582031 1.59375 -9.820312 1.59375 -12.375 C 1.59375 -15.34375 2.050781 -17.945312 2.96875 -20.1875 C 3.894531 -22.4375 5.171875 -24.195312 6.796875 -25.46875 C 8.421875 -26.75 10.257812 -27.390625 12.3125 -27.390625 C 12.8125 -27.390625 13.304688 -27.34375 13.796875 -27.25 C 14.296875 -27.164062 14.773438 -27.015625 15.234375 -26.796875 C 15.796875 -26.515625 16.078125 -26.640625 16.078125 -27.171875 L 16.078125 -33.96875 C 16.078125 -34.601562 15.976562 -35.046875 15.78125 -35.296875 C 15.59375 -35.546875 15.25 -35.6875 14.75 -35.71875 L 13.375 -35.875 C 12.988281 -35.945312 12.796875 -36.160156 12.796875 -36.515625 C 12.796875 -36.867188 12.988281 -37.082031 13.375 -37.15625 C 14.507812 -37.363281 15.421875 -37.609375 16.109375 -37.890625 C 16.796875 -38.179688 17.367188 -38.46875 17.828125 -38.75 C 18.398438 -39.101562 18.828125 -39.28125 19.109375 -39.28125 C 19.492188 -39.28125 19.6875 -38.992188 19.6875 -38.421875 L 19.6875 -5.046875 C 19.6875 -3.554688 20.0625 -2.8125 20.8125 -2.8125 C 21.269531 -2.8125 21.691406 -3.117188 22.078125 -3.734375 C 22.472656 -4.359375 22.671875 -5.414062 22.671875 -6.90625 C 22.671875 -7.46875 22.898438 -7.75 23.359375 -7.75 C 23.773438 -7.75 23.984375 -7.445312 23.984375 -6.84375 C 23.984375 -4.257812 23.539062 -2.390625 22.65625 -1.234375 C 21.78125 -0.0859375 20.773438 0.484375 19.640625 0.484375 C 18.609375 0.484375 17.828125 0.140625 17.296875 -0.546875 C 16.765625 -1.242188 16.410156 -2.070312 16.234375 -3.03125 C 16.203125 -3.3125 16.078125 -3.457031 15.859375 -3.46875 C 15.648438 -3.488281 15.457031 -3.359375 15.28125 -3.078125 C 14.289062 -1.703125 13.390625 -0.765625 12.578125 -0.265625 C 11.765625 0.234375 10.773438 0.484375 9.609375 0.484375 Z M 10.78125 -1.96875 C 11.695312 -1.96875 12.550781 -2.273438 13.34375 -2.890625 C 14.144531 -3.515625 14.800781 -4.351562 15.3125 -5.40625 C 15.820312 -6.46875 16.078125 -7.65625 16.078125 -8.96875 L 16.078125 -20.90625 C 16.078125 -22.5 15.710938 -23.753906 14.984375 -24.671875 C 14.265625 -25.597656 13.320312 -26.0625 12.15625 -26.0625 C 10.175781 -26.0625 8.570312 -24.898438 7.34375 -22.578125 C 6.125 -20.265625 5.515625 -17.109375 5.515625 -13.109375 C 5.515625 -9.460938 5.984375 -6.691406 6.921875 -4.796875 C 7.859375 -2.910156 9.144531 -1.96875 10.78125 -1.96875 Z M 10.78125 -1.96875 "/></g></g></g><g fill="#e10613" fill-opacity="1"><g transform="translate(75.983215, 52.059013)"><g><path d="M 9.921875 0.484375 C 9.460938 0.484375 9.144531 0.128906 8.96875 -0.578125 L 2.546875 -23.515625 C 2.296875 -24.359375 2.054688 -24.90625 1.828125 -25.15625 C 1.597656 -25.40625 1.238281 -25.582031 0.75 -25.6875 L -0.046875 -25.84375 C -0.515625 -25.957031 -0.75 -26.191406 -0.75 -26.546875 C -0.75 -26.890625 -0.5 -27.0625 0 -27.0625 L 8.59375 -27.0625 C 9.09375 -27.0625 9.34375 -26.890625 9.34375 -26.546875 C 9.34375 -26.148438 9.113281 -25.914062 8.65625 -25.84375 L 7.796875 -25.75 C 6.953125 -25.632812 6.421875 -25.425781 6.203125 -25.125 C 5.992188 -24.832031 5.992188 -24.296875 6.203125 -23.515625 L 10.40625 -8.0625 C 10.507812 -7.707031 10.675781 -7.53125 10.90625 -7.53125 C 11.132812 -7.53125 11.300781 -7.707031 11.40625 -8.0625 L 15.015625 -21.8125 C 15.085938 -22.09375 15.132812 -22.375 15.15625 -22.65625 C 15.175781 -22.945312 15.128906 -23.25 15.015625 -23.5625 C 14.773438 -24.414062 14.535156 -24.957031 14.296875 -25.1875 C 14.066406 -25.414062 13.707031 -25.582031 13.21875 -25.6875 L 12.421875 -25.84375 C 11.960938 -25.957031 11.734375 -26.191406 11.734375 -26.546875 C 11.734375 -26.890625 11.976562 -27.0625 12.46875 -27.0625 L 21.078125 -27.0625 C 21.566406 -27.0625 21.8125 -26.890625 21.8125 -26.546875 C 21.8125 -26.148438 21.582031 -25.914062 21.125 -25.84375 L 20.28125 -25.75 C 19.425781 -25.632812 18.910156 -25.425781 18.734375 -25.125 C 18.554688 -24.832031 18.539062 -24.296875 18.6875 -23.515625 L 22.078125 -8.171875 C 22.148438 -7.816406 22.300781 -7.640625 22.53125 -7.640625 C 22.757812 -7.640625 22.925781 -7.816406 23.03125 -8.171875 L 27.0625 -22.5625 C 27.351562 -23.507812 27.4375 -24.222656 27.3125 -24.703125 C 27.1875 -25.179688 26.679688 -25.492188 25.796875 -25.640625 L 24.6875 -25.84375 C 24.21875 -25.957031 23.984375 -26.191406 23.984375 -26.546875 C 23.984375 -26.890625 24.234375 -27.0625 24.734375 -27.0625 L 31.375 -27.0625 C 31.863281 -27.0625 32.109375 -26.867188 32.109375 -26.484375 C 32.109375 -26.128906 31.894531 -25.882812 31.46875 -25.75 L 31 -25.578125 C 30.46875 -25.398438 30.003906 -25.082031 29.609375 -24.625 C 29.222656 -24.164062 28.875 -23.367188 28.5625 -22.234375 L 22.5 -0.578125 C 22.320312 0.128906 21.988281 0.484375 21.5 0.484375 C 21.070312 0.484375 20.769531 0.128906 20.59375 -0.578125 L 16.453125 -17.5625 C 16.347656 -17.957031 16.179688 -18.160156 15.953125 -18.171875 C 15.722656 -18.191406 15.554688 -17.988281 15.453125 -17.5625 L 10.875 -0.578125 C 10.695312 0.128906 10.378906 0.484375 9.921875 0.484375 Z M 9.921875 0.484375 "/></g></g></g><g fill="#e10613" fill-opacity="1"><g transform="translate(104.21778, 52.059013)"><g><path d="M 6.375 0.484375 C 4.882812 0.484375 3.660156 0.015625 2.703125 -0.921875 C 1.753906 -1.859375 1.28125 -3.109375 1.28125 -4.671875 C 1.28125 -6.191406 1.753906 -7.632812 2.703125 -9 C 3.660156 -10.363281 4.96875 -11.59375 6.625 -12.6875 C 8.289062 -13.78125 10.1875 -14.664062 12.3125 -15.34375 C 12.769531 -15.476562 13 -15.773438 13 -16.234375 L 13 -21.078125 C 13 -22.773438 12.734375 -23.984375 12.203125 -24.703125 C 11.671875 -25.429688 10.945312 -25.796875 10.03125 -25.796875 C 9.144531 -25.796875 8.335938 -25.394531 7.609375 -24.59375 C 6.890625 -23.800781 6.367188 -22.46875 6.046875 -20.59375 C 5.867188 -19.457031 5.488281 -18.632812 4.90625 -18.125 C 4.320312 -17.613281 3.726562 -17.359375 3.125 -17.359375 C 2.132812 -17.359375 1.640625 -17.851562 1.640625 -18.84375 C 1.640625 -19.863281 1.929688 -20.878906 2.515625 -21.890625 C 3.097656 -22.898438 3.867188 -23.820312 4.828125 -24.65625 C 5.785156 -25.488281 6.828125 -26.148438 7.953125 -26.640625 C 9.085938 -27.140625 10.222656 -27.390625 11.359375 -27.390625 C 14.859375 -27.390625 16.609375 -25.351562 16.609375 -21.28125 L 16.609375 -5.046875 C 16.609375 -3.554688 16.984375 -2.8125 17.734375 -2.8125 C 18.191406 -2.8125 18.613281 -3.117188 19 -3.734375 C 19.382812 -4.359375 19.578125 -5.414062 19.578125 -6.90625 C 19.578125 -7.46875 19.8125 -7.75 20.28125 -7.75 C 20.695312 -7.75 20.90625 -7.445312 20.90625 -6.84375 C 20.90625 -4.257812 20.453125 -2.390625 19.546875 -1.234375 C 18.648438 -0.0859375 17.632812 0.484375 16.5 0.484375 C 15.65625 0.484375 14.984375 0.140625 14.484375 -0.546875 C 13.992188 -1.242188 13.660156 -2.070312 13.484375 -3.03125 C 13.441406 -3.382812 13.285156 -3.566406 13.015625 -3.578125 C 12.753906 -3.597656 12.503906 -3.429688 12.265625 -3.078125 C 11.410156 -1.910156 10.539062 -1.023438 9.65625 -0.421875 C 8.769531 0.179688 7.675781 0.484375 6.375 0.484375 Z M 7.796875 -1.96875 C 8.722656 -1.96875 9.570312 -2.289062 10.34375 -2.9375 C 11.125 -3.59375 11.757812 -4.46875 12.25 -5.5625 C 12.75 -6.664062 13 -7.90625 13 -9.28125 L 13 -13.15625 C 13 -13.832031 12.628906 -14.03125 11.890625 -13.75 C 9.734375 -12.96875 8.0625 -11.894531 6.875 -10.53125 C 5.6875 -9.175781 5.09375 -7.539062 5.09375 -5.625 C 5.09375 -3.1875 5.992188 -1.96875 7.796875 -1.96875 Z M 7.796875 -1.96875 "/></g></g></g><g fill="#e10613" fill-opacity="1"><g transform="translate(122.580865, 52.059013)"><g><path d="M 8.171875 -23.671875 C 9.617188 -26.148438 11.367188 -27.390625 13.421875 -27.390625 C 14.597656 -27.390625 15.46875 -27.039062 16.03125 -26.34375 C 16.59375 -25.65625 16.875 -24.890625 16.875 -24.046875 C 16.875 -23.367188 16.707031 -22.816406 16.375 -22.390625 C 16.039062 -21.972656 15.519531 -21.765625 14.8125 -21.765625 C 14.238281 -21.765625 13.816406 -21.894531 13.546875 -22.15625 C 13.285156 -22.425781 13.078125 -22.738281 12.921875 -23.09375 C 12.765625 -23.445312 12.578125 -23.753906 12.359375 -24.015625 C 12.148438 -24.285156 11.800781 -24.421875 11.3125 -24.421875 C 10.664062 -24.421875 10.0625 -24.039062 9.5 -23.28125 C 8.9375 -22.519531 8.46875 -21.5 8.09375 -20.21875 C 7.71875 -18.945312 7.53125 -17.5 7.53125 -15.875 L 7.53125 -3.5625 C 7.53125 -2.8125 7.644531 -2.273438 7.875 -1.953125 C 8.113281 -1.640625 8.601562 -1.445312 9.34375 -1.375 L 10.78125 -1.21875 C 11.164062 -1.144531 11.359375 -0.953125 11.359375 -0.640625 C 11.359375 -0.210938 11.09375 0 10.5625 0 L 1.59375 0 C 1.0625 0 0.796875 -0.191406 0.796875 -0.578125 C 0.796875 -0.898438 1.023438 -1.113281 1.484375 -1.21875 L 2.125 -1.328125 C 2.863281 -1.472656 3.347656 -1.691406 3.578125 -1.984375 C 3.804688 -2.285156 3.921875 -2.8125 3.921875 -3.5625 L 3.921875 -21.390625 C 3.921875 -22.023438 3.820312 -22.457031 3.625 -22.6875 C 3.4375 -22.914062 3.09375 -23.066406 2.59375 -23.140625 L 1.484375 -23.296875 C 1.023438 -23.335938 0.796875 -23.535156 0.796875 -23.890625 C 0.796875 -24.171875 1.078125 -24.363281 1.640625 -24.46875 C 2.742188 -24.644531 3.585938 -24.925781 4.171875 -25.3125 C 4.753906 -25.707031 5.363281 -26.1875 6 -26.75 C 6.3125 -27.070312 6.578125 -27.234375 6.796875 -27.234375 C 7.109375 -27.234375 7.265625 -27.019531 7.265625 -26.59375 L 7.265625 -23.71875 C 7.265625 -23.476562 7.367188 -23.328125 7.578125 -23.265625 C 7.796875 -23.210938 7.992188 -23.347656 8.171875 -23.671875 Z M 8.171875 -23.671875 "/></g></g></g><g fill="#e10613" fill-opacity="1"><g transform="translate(136.645083, 52.059013)"><g><path d="M 10.1875 0.484375 C 8.488281 0.484375 6.96875 -0.0820312 5.625 -1.21875 C 4.28125 -2.351562 3.207031 -3.953125 2.40625 -6.015625 C 1.613281 -8.085938 1.21875 -10.488281 1.21875 -13.21875 C 1.21875 -16.007812 1.625 -18.46875 2.4375 -20.59375 C 3.25 -22.71875 4.363281 -24.378906 5.78125 -25.578125 C 7.195312 -26.785156 8.773438 -27.390625 10.515625 -27.390625 C 12.597656 -27.390625 14.285156 -26.53125 15.578125 -24.8125 C 16.867188 -23.09375 17.515625 -20.304688 17.515625 -16.453125 C 17.515625 -15.285156 17.070312 -14.703125 16.1875 -14.703125 L 6.109375 -14.703125 C 5.398438 -14.703125 5.046875 -14.296875 5.046875 -13.484375 C 5.046875 -9.734375 5.59375 -6.921875 6.6875 -5.046875 C 7.78125 -3.171875 9.175781 -2.234375 10.875 -2.234375 C 12.21875 -2.234375 13.316406 -2.707031 14.171875 -3.65625 C 15.023438 -4.613281 15.710938 -6.226562 16.234375 -8.5 C 16.347656 -8.882812 16.582031 -9.078125 16.9375 -9.078125 C 17.351562 -9.078125 17.507812 -8.722656 17.40625 -8.015625 C 16.84375 -4.867188 15.941406 -2.664062 14.703125 -1.40625 C 13.460938 -0.144531 11.957031 0.484375 10.1875 0.484375 Z M 5.9375 -16.03125 L 11.3125 -16.03125 C 13.007812 -16.03125 13.859375 -16.914062 13.859375 -18.6875 C 13.859375 -20.988281 13.570312 -22.789062 13 -24.09375 C 12.4375 -25.40625 11.585938 -26.0625 10.453125 -26.0625 C 9.078125 -26.0625 7.921875 -25.265625 6.984375 -23.671875 C 6.046875 -22.078125 5.4375 -19.8125 5.15625 -16.875 C 5.082031 -16.3125 5.34375 -16.03125 5.9375 -16.03125 Z M 5.9375 -16.03125 "/></g></g></g></g></g></svg>