<svg xmlns="http://www.w3.org/2000/svg" xmlns:xlink="http://www.w3.org/1999/xlink" width="1200" zoomAndPan="magnify" viewBox="0 0 900 119.999999" height="160" preserveAspectRatio="xMidYMid meet" version="1.0"><defs><g/><clipPath id="28933dcd65"><rect x="0" width="155" y="0" height="70"/></clipPath></defs><g transform="matrix(1, 0, 0, 1, 373, 25)"><g clip-path="url(#28933dcd65)"><g fill="#e10613" fill-opacity="1"><g transform="translate(0.787622, 52.059013)"><g><path d="M 7.796875 0.484375 C 6.554688 0.484375 5.539062 0.0507812 4.75 -0.8125 C 3.957031 -1.6875 3.5625 -3.113281 3.5625 -5.09375 L 3.5625 -24.953125 C 3.5625 -25.367188 3.347656 -25.578125 2.921875 -25.578125 L 1.375 -25.578125 C 0.8125 -25.578125 0.53125 -25.789062 0.53125 -26.21875 C 0.53125 -26.5 0.691406 -26.75 1.015625 -26.96875 C 2.179688 -27.78125 3.117188 -28.65625 3.828125 -29.59375 C 4.535156 -30.53125 5.148438 -31.8125 5.671875 -33.4375 C 5.921875 -34.175781 6.222656 -34.546875 6.578125 -34.546875 C 6.972656 -34.546875 7.171875 -34.265625 7.171875 -33.703125 L 7.171875 -27.8125 C 7.171875 -27.3125 7.414062 -27.0625 7.90625 -27.0625 L 11.359375 -27.0625 C 11.921875 -27.0625 12.203125 -26.816406 12.203125 -26.328125 C 12.203125 -25.828125 11.921875 -25.578125 11.359375 -25.578125 L 7.90625 -25.578125 C 7.414062 -25.578125 7.171875 -25.332031 7.171875 -24.84375 L 7.171875 -5.046875 C 7.171875 -4.265625 7.289062 -3.648438 7.53125 -3.203125 C 7.78125 -2.765625 8.242188 -2.546875 8.921875 -2.546875 C 9.660156 -2.546875 10.269531 -2.914062 10.75 -3.65625 C 11.226562 -4.40625 11.535156 -5.609375 11.671875 -7.265625 C 11.742188 -7.765625 11.976562 -8.015625 12.375 -8.015625 C 12.789062 -8.015625 13 -7.75 13 -7.21875 C 12.894531 -4.488281 12.335938 -2.519531 11.328125 -1.3125 C 10.316406 -0.113281 9.140625 0.484375 7.796875 0.484375 Z M 7.796875 0.484375 "/></g></g></g><g fill="#e10613" fill-opacity="1"><g transform="translate(11.720563, 52.059013)"><g><path d="M 10.1875 0.484375 C 8.488281 0.484375 6.96875 -0.0820312 5.625 -1.21875 C 4.28125 -2.351562 3.207031 -3.953125 2.40625 -6.015625 C 1.613281 -8.085938 1.21875 -10.488281 1.21875 -13.21875 C 1.21875 -16.007812 1.625 -18.46875 2.4375 -20.59375 C 3.25 -22.71875 4.363281 -24.378906 5.78125 -25.578125 C 7.195312 -26.785156 8.773438 -27.390625 10.515625 -27.390625 C 12.597656 -27.390625 14.285156 -26.53125 15.578125 -24.8125 C 16.867188 -23.09375 17.515625 -20.304688 17.515625 -16.453125 C 17.515625 -15.285156 17.070312 -14.703125 16.1875 -14.703125 L 6.109375 -14.703125 C 5.398438 -14.703125 5.046875 -14.296875 5.046875 -13.484375 C 5.046875 -9.734375 5.59375 -6.921875 6.6875 -5.046875 C 7.78125 -3.171875 9.175781 -2.234375 10.875 -2.234375 C 12.21875 -2.234375 13.316406 -2.707031 14.171875 -3.65625 C 15.023438 -4.613281 15.710938 -6.226562 16.234375 -8.5 C 16.347656 -8.882812 16.582031 -9.078125 16.9375 -9.078125 C 17.351562 -9.078125 17.507812 -8.722656 17.40625 -8.015625 C 16.84375 -4.867188 15.941406 -2.664062 14.703125 -1.40625 C 13.460938 -0.144531 11.957031 0.484375 10.1875 0.484375 Z M 5.9375 -16.03125 L 11.3125 -16.03125 C 13.007812 -16.03125 13.859375 -16.914062 13.859375 -18.6875 C 13.859375 -20.988281 13.570312 -22.789062 13 -24.09375 C 12.4375 -25.40625 11.585938 -26.0625 10.453125 -26.0625 C 9.078125 -26.0625 7.921875 -25.265625 6.984375 -23.671875 C 6.046875 -22.078125 5.4375 -19.8125 5.15625 -16.875 C 5.082031 -16.3125 5.34375 -16.03125 5.9375 -16.03125 Z M 5.9375 -16.03125 "/></g></g></g><g fill="#e10613" fill-opacity="1"><g transform="translate(27.748469, 52.059013)"><g><path d="M 9.546875 0.484375 C 7.992188 0.484375 6.585938 -0.0351562 5.328125 -1.078125 C 4.078125 -2.128906 3.078125 -3.628906 2.328125 -5.578125 C 1.585938 -7.523438 1.21875 -9.84375 1.21875 -12.53125 C 1.21875 -15.53125 1.664062 -18.144531 2.5625 -20.375 C 3.46875 -22.601562 4.695312 -24.328125 6.25 -25.546875 C 7.8125 -26.773438 9.550781 -27.390625 11.46875 -27.390625 C 13.09375 -27.390625 14.363281 -27.070312 15.28125 -26.4375 C 15.632812 -26.1875 15.8125 -25.796875 15.8125 -25.265625 L 15.921875 -18.796875 C 15.921875 -18.265625 15.707031 -18 15.28125 -18 C 14.894531 -18 14.648438 -18.226562 14.546875 -18.6875 C 14.046875 -20.632812 13.566406 -22.132812 13.109375 -23.1875 C 12.648438 -24.25 12.171875 -24.984375 11.671875 -25.390625 C 11.179688 -25.804688 10.632812 -26.015625 10.03125 -26.015625 C 9.320312 -26.015625 8.585938 -25.601562 7.828125 -24.78125 C 7.066406 -23.96875 6.429688 -22.648438 5.921875 -20.828125 C 5.410156 -19.003906 5.15625 -16.609375 5.15625 -13.640625 C 5.15625 -9.859375 5.640625 -7.007812 6.609375 -5.09375 C 7.578125 -3.1875 8.84375 -2.234375 10.40625 -2.234375 C 11.644531 -2.234375 12.675781 -2.742188 13.5 -3.765625 C 14.332031 -4.796875 15.050781 -6.65625 15.65625 -9.34375 C 15.757812 -9.726562 15.972656 -9.921875 16.296875 -9.921875 C 16.722656 -9.921875 16.878906 -9.566406 16.765625 -8.859375 C 16.378906 -6.390625 15.84375 -4.472656 15.15625 -3.109375 C 14.46875 -1.742188 13.65625 -0.800781 12.71875 -0.28125 C 11.78125 0.226562 10.722656 0.484375 9.546875 0.484375 Z M 9.546875 0.484375 "/></g></g></g><g fill="#e10613" fill-opacity="1"><g transform="translate(42.927204, 52.059013)"><g><path d="M 1.4375 0 C 1.007812 0 0.796875 -0.191406 0.796875 -0.578125 C 0.796875 -0.929688 0.988281 -1.144531 1.375 -1.21875 L 2.125 -1.328125 C 2.863281 -1.429688 3.347656 -1.640625 3.578125 -1.953125 C 3.804688 -2.273438 3.921875 -2.8125 3.921875 -3.5625 L 3.921875 -33.96875 C 3.921875 -34.601562 3.820312 -35.035156 3.625 -35.265625 C 3.4375 -35.492188 3.09375 -35.644531 2.59375 -35.71875 L 1.484375 -35.875 C 1.097656 -35.945312 0.90625 -36.160156 0.90625 -36.515625 C 0.90625 -36.867188 1.097656 -37.082031 1.484375 -37.15625 C 2.472656 -37.363281 3.300781 -37.609375 3.96875 -37.890625 C 4.644531 -38.179688 5.210938 -38.46875 5.671875 -38.75 C 6.242188 -39.101562 6.671875 -39.28125 6.953125 -39.28125 C 7.335938 -39.28125 7.53125 -38.992188 7.53125 -38.421875 L 7.53125 -24.359375 C 7.53125 -24.046875 7.632812 -23.859375 7.84375 -23.796875 C 8.0625 -23.742188 8.332031 -23.863281 8.65625 -24.15625 C 10 -25.394531 11.179688 -26.242188 12.203125 -26.703125 C 13.234375 -27.160156 14.316406 -27.390625 15.453125 -27.390625 C 17.109375 -27.390625 18.414062 -26.832031 19.375 -25.71875 C 20.332031 -24.601562 20.8125 -22.96875 20.8125 -20.8125 L 20.8125 -3.5625 C 20.8125 -2.8125 20.925781 -2.285156 21.15625 -1.984375 C 21.382812 -1.691406 21.867188 -1.488281 22.609375 -1.375 L 23.78125 -1.21875 C 24.164062 -1.144531 24.359375 -0.929688 24.359375 -0.578125 C 24.359375 -0.191406 24.144531 0 23.71875 0 L 14.8125 0 C 14.3125 0 14.0625 -0.191406 14.0625 -0.578125 C 14.0625 -0.929688 14.257812 -1.144531 14.65625 -1.21875 L 15.390625 -1.328125 C 16.128906 -1.429688 16.613281 -1.640625 16.84375 -1.953125 C 17.082031 -2.273438 17.203125 -2.8125 17.203125 -3.5625 L 17.203125 -20.21875 C 17.203125 -21.957031 16.878906 -23.179688 16.234375 -23.890625 C 15.597656 -24.597656 14.695312 -24.953125 13.53125 -24.953125 C 12.40625 -24.953125 11.390625 -24.625 10.484375 -23.96875 C 9.578125 -23.3125 8.859375 -22.441406 8.328125 -21.359375 C 7.796875 -20.285156 7.53125 -19.09375 7.53125 -17.78125 L 7.53125 -3.5625 C 7.53125 -2.8125 7.644531 -2.273438 7.875 -1.953125 C 8.113281 -1.640625 8.601562 -1.445312 9.34375 -1.375 L 10.78125 -1.21875 C 11.164062 -1.144531 11.359375 -0.929688 11.359375 -0.578125 C 11.359375 -0.191406 11.144531 0 10.71875 0 Z M 1.4375 0 "/></g></g></g><g fill="#e10613" fill-opacity="1"><g transform="translate(65.058433, 52.059013)"><g/></g></g><g fill="#e10613" fill-opacity="1"><g transform="translate(71.267929, 52.059013)"><g><path d="M 6.953125 0.484375 C 6.140625 0.484375 5.269531 0.382812 4.34375 0.1875 C 3.425781 -0.0078125 2.6875 -0.25 2.125 -0.53125 C 1.800781 -0.707031 1.640625 -1.007812 1.640625 -1.4375 L 1.484375 -7.375 C 1.484375 -7.976562 1.710938 -8.28125 2.171875 -8.28125 C 2.566406 -8.28125 2.832031 -8 2.96875 -7.4375 C 3.570312 -4.914062 4.304688 -3.195312 5.171875 -2.28125 C 6.035156 -1.363281 7.085938 -0.90625 8.328125 -0.90625 C 9.359375 -0.90625 10.207031 -1.300781 10.875 -2.09375 C 11.550781 -2.894531 11.890625 -4 11.890625 -5.40625 C 11.890625 -6.820312 11.5 -8.078125 10.71875 -9.171875 C 9.9375 -10.273438 8.628906 -11.484375 6.796875 -12.796875 C 4.953125 -14.035156 3.601562 -15.28125 2.75 -16.53125 C 1.90625 -17.789062 1.484375 -19.160156 1.484375 -20.640625 C 1.484375 -22.660156 2.191406 -24.289062 3.609375 -25.53125 C 5.023438 -26.769531 6.898438 -27.390625 9.234375 -27.390625 C 9.941406 -27.390625 10.628906 -27.304688 11.296875 -27.140625 C 11.972656 -26.984375 12.578125 -26.726562 13.109375 -26.375 C 13.429688 -26.164062 13.59375 -25.882812 13.59375 -25.53125 L 13.6875 -19.6875 C 13.6875 -19.15625 13.476562 -18.890625 13.0625 -18.890625 C 12.8125 -18.890625 12.632812 -18.96875 12.53125 -19.125 C 12.425781 -19.289062 12.335938 -19.5 12.265625 -19.75 C 11.554688 -22.039062 10.847656 -23.640625 10.140625 -24.546875 C 9.429688 -25.453125 8.5625 -25.90625 7.53125 -25.90625 C 6.613281 -25.90625 5.851562 -25.582031 5.25 -24.9375 C 4.65625 -24.300781 4.359375 -23.507812 4.359375 -22.5625 C 4.359375 -21.320312 4.726562 -20.238281 5.46875 -19.3125 C 6.207031 -18.394531 7.550781 -17.265625 9.5 -15.921875 C 11.269531 -14.648438 12.601562 -13.28125 13.5 -11.8125 C 14.40625 -10.34375 14.859375 -8.738281 14.859375 -7 C 14.859375 -4.738281 14.132812 -2.925781 12.6875 -1.5625 C 11.238281 -0.195312 9.328125 0.484375 6.953125 0.484375 Z M 6.953125 0.484375 "/></g></g></g><g fill="#e10613" fill-opacity="1"><g transform="translate(84.801424, 52.059013)"><g><path d="M 7.796875 0.484375 C 6.554688 0.484375 5.539062 0.0507812 4.75 -0.8125 C 3.957031 -1.6875 3.5625 -3.113281 3.5625 -5.09375 L 3.5625 -24.953125 C 3.5625 -25.367188 3.347656 -25.578125 2.921875 -25.578125 L 1.375 -25.578125 C 0.8125 -25.578125 0.53125 -25.789062 0.53125 -26.21875 C 0.53125 -26.5 0.691406 -26.75 1.015625 -26.96875 C 2.179688 -27.78125 3.117188 -28.65625 3.828125 -29.59375 C 4.535156 -30.53125 5.148438 -31.8125 5.671875 -33.4375 C 5.921875 -34.175781 6.222656 -34.546875 6.578125 -34.546875 C 6.972656 -34.546875 7.171875 -34.265625 7.171875 -33.703125 L 7.171875 -27.8125 C 7.171875 -27.3125 7.414062 -27.0625 7.90625 -27.0625 L 11.359375 -27.0625 C 11.921875 -27.0625 12.203125 -26.816406 12.203125 -26.328125 C 12.203125 -25.828125 11.921875 -25.578125 11.359375 -25.578125 L 7.90625 -25.578125 C 7.414062 -25.578125 7.171875 -25.332031 7.171875 -24.84375 L 7.171875 -5.046875 C 7.171875 -4.265625 7.289062 -3.648438 7.53125 -3.203125 C 7.78125 -2.765625 8.242188 -2.546875 8.921875 -2.546875 C 9.660156 -2.546875 10.269531 -2.914062 10.75 -3.65625 C 11.226562 -4.40625 11.535156 -5.609375 11.671875 -7.265625 C 11.742188 -7.765625 11.976562 -8.015625 12.375 -8.015625 C 12.789062 -8.015625 13 -7.75 13 -7.21875 C 12.894531 -4.488281 12.335938 -2.519531 11.328125 -1.3125 C 10.316406 -0.113281 9.140625 0.484375 7.796875 0.484375 Z M 7.796875 0.484375 "/></g></g></g><g fill="#e10613" fill-opacity="1"><g transform="translate(95.734365, 52.059013)"><g><path d="M 6.375 0.484375 C 4.882812 0.484375 3.660156 0.015625 2.703125 -0.921875 C 1.753906 -1.859375 1.28125 -3.109375 1.28125 -4.671875 C 1.28125 -6.191406 1.753906 -7.632812 2.703125 -9 C 3.660156 -10.363281 4.96875 -11.59375 6.625 -12.6875 C 8.289062 -13.78125 10.1875 -14.664062 12.3125 -15.34375 C 12.769531 -15.476562 13 -15.773438 13 -16.234375 L 13 -21.078125 C 13 -22.773438 12.734375 -23.984375 12.203125 -24.703125 C 11.671875 -25.429688 10.945312 -25.796875 10.03125 -25.796875 C 9.144531 -25.796875 8.335938 -25.394531 7.609375 -24.59375 C 6.890625 -23.800781 6.367188 -22.46875 6.046875 -20.59375 C 5.867188 -19.457031 5.488281 -18.632812 4.90625 -18.125 C 4.320312 -17.613281 3.726562 -17.359375 3.125 -17.359375 C 2.132812 -17.359375 1.640625 -17.851562 1.640625 -18.84375 C 1.640625 -19.863281 1.929688 -20.878906 2.515625 -21.890625 C 3.097656 -22.898438 3.867188 -23.820312 4.828125 -24.65625 C 5.785156 -25.488281 6.828125 -26.148438 7.953125 -26.640625 C 9.085938 -27.140625 10.222656 -27.390625 11.359375 -27.390625 C 14.859375 -27.390625 16.609375 -25.351562 16.609375 -21.28125 L 16.609375 -5.046875 C 16.609375 -3.554688 16.984375 -2.8125 17.734375 -2.8125 C 18.191406 -2.8125 18.613281 -3.117188 19 -3.734375 C 19.382812 -4.359375 19.578125 -5.414062 19.578125 -6.90625 C 19.578125 -7.46875 19.8125 -7.75 20.28125 -7.75 C 20.695312 -7.75 20.90625 -7.445312 20.90625 -6.84375 C 20.90625 -4.257812 20.453125 -2.390625 19.546875 -1.234375 C 18.648438 -0.0859375 17.632812 0.484375 16.5 0.484375 C 15.65625 0.484375 14.984375 0.140625 14.484375 -0.546875 C 13.992188 -1.242188 13.660156 -2.070312 13.484375 -3.03125 C 13.441406 -3.382812 13.285156 -3.566406 13.015625 -3.578125 C 12.753906 -3.597656 12.503906 -3.429688 12.265625 -3.078125 C 11.410156 -1.910156 10.539062 -1.023438 9.65625 -0.421875 C 8.769531 0.179688 7.675781 0.484375 6.375 0.484375 Z M 7.796875 -1.96875 C 8.722656 -1.96875 9.570312 -2.289062 10.34375 -2.9375 C 11.125 -3.59375 11.757812 -4.46875 12.25 -5.5625 C 12.75 -6.664062 13 -7.90625 13 -9.28125 L 13 -13.15625 C 13 -13.832031 12.628906 -14.03125 11.890625 -13.75 C 9.734375 -12.96875 8.0625 -11.894531 6.875 -10.53125 C 5.6875 -9.175781 5.09375 -7.539062 5.09375 -5.625 C 5.09375 -3.1875 5.992188 -1.96875 7.796875 -1.96875 Z M 7.796875 -1.96875 "/></g></g></g><g fill="#e10613" fill-opacity="1"><g transform="translate(114.09745, 52.059013)"><g><path d="M 9.546875 0.484375 C 7.992188 0.484375 6.585938 -0.0351562 5.328125 -1.078125 C 4.078125 -2.128906 3.078125 -3.628906 2.328125 -5.578125 C 1.585938 -7.523438 1.21875 -9.84375 1.21875 -12.53125 C 1.21875 -15.53125 1.664062 -18.144531 2.5625 -20.375 C 3.46875 -22.601562 4.695312 -24.328125 6.25 -25.546875 C 7.8125 -26.773438 9.550781 -27.390625 11.46875 -27.390625 C 13.09375 -27.390625 14.363281 -27.070312 15.28125 -26.4375 C 15.632812 -26.1875 15.8125 -25.796875 15.8125 -25.265625 L 15.921875 -18.796875 C 15.921875 -18.265625 15.707031 -18 15.28125 -18 C 14.894531 -18 14.648438 -18.226562 14.546875 -18.6875 C 14.046875 -20.632812 13.566406 -22.132812 13.109375 -23.1875 C 12.648438 -24.25 12.171875 -24.984375 11.671875 -25.390625 C 11.179688 -25.804688 10.632812 -26.015625 10.03125 -26.015625 C 9.320312 -26.015625 8.585938 -25.601562 7.828125 -24.78125 C 7.066406 -23.96875 6.429688 -22.648438 5.921875 -20.828125 C 5.410156 -19.003906 5.15625 -16.609375 5.15625 -13.640625 C 5.15625 -9.859375 5.640625 -7.007812 6.609375 -5.09375 C 7.578125 -3.1875 8.84375 -2.234375 10.40625 -2.234375 C 11.644531 -2.234375 12.675781 -2.742188 13.5 -3.765625 C 14.332031 -4.796875 15.050781 -6.65625 15.65625 -9.34375 C 15.757812 -9.726562 15.972656 -9.921875 16.296875 -9.921875 C 16.722656 -9.921875 16.878906 -9.566406 16.765625 -8.859375 C 16.378906 -6.390625 15.84375 -4.472656 15.15625 -3.109375 C 14.46875 -1.742188 13.65625 -0.800781 12.71875 -0.28125 C 11.78125 0.226562 10.722656 0.484375 9.546875 0.484375 Z M 9.546875 0.484375 "/></g></g></g><g fill="#e10613" fill-opacity="1"><g transform="translate(129.276185, 52.059013)"><g><path d="M 1.4375 0 C 1.007812 0 0.796875 -0.191406 0.796875 -0.578125 C 0.796875 -0.929688 0.988281 -1.144531 1.375 -1.21875 L 2.125 -1.328125 C 2.863281 -1.429688 3.347656 -1.640625 3.578125 -1.953125 C 3.804688 -2.273438 3.921875 -2.8125 3.921875 -3.5625 L 3.921875 -33.96875 C 3.921875 -34.601562 3.820312 -35.035156 3.625 -35.265625 C 3.4375 -35.492188 3.09375 -35.644531 2.59375 -35.71875 L 1.484375 -35.875 C 1.097656 -35.945312 0.90625 -36.160156 0.90625 -36.515625 C 0.90625 -36.867188 1.097656 -37.082031 1.484375 -37.15625 C 2.472656 -37.363281 3.300781 -37.609375 3.96875 -37.890625 C 4.644531 -38.179688 5.210938 -38.46875 5.671875 -38.75 C 6.242188 -39.101562 6.671875 -39.28125 6.953125 -39.28125 C 7.335938 -39.28125 7.53125 -38.992188 7.53125 -38.421875 L 7.53125 -16.1875 C 7.53125 -15.832031 7.679688 -15.609375 7.984375 -15.515625 C 8.285156 -15.429688 8.578125 -15.550781 8.859375 -15.875 L 15.078125 -22.5625 C 15.816406 -23.375 16.125 -24.050781 16 -24.59375 C 15.875 -25.144531 15.457031 -25.492188 14.75 -25.640625 L 13.53125 -25.84375 C 13.070312 -25.957031 12.84375 -26.191406 12.84375 -26.546875 C 12.84375 -26.890625 13.09375 -27.0625 13.59375 -27.0625 L 22.71875 -27.0625 C 23.207031 -27.0625 23.453125 -26.867188 23.453125 -26.484375 C 23.453125 -26.097656 23.222656 -25.882812 22.765625 -25.84375 L 22.296875 -25.796875 C 21.484375 -25.722656 20.664062 -25.410156 19.84375 -24.859375 C 19.03125 -24.316406 18.0625 -23.460938 16.9375 -22.296875 L 13.640625 -18.796875 C 12.898438 -17.972656 12.722656 -17.175781 13.109375 -16.40625 L 19.796875 -3.5625 C 20.179688 -2.851562 20.601562 -2.335938 21.0625 -2.015625 C 21.53125 -1.703125 22.097656 -1.472656 22.765625 -1.328125 L 23.296875 -1.21875 C 23.722656 -1.113281 23.9375 -0.898438 23.9375 -0.578125 C 23.9375 -0.191406 23.6875 0 23.1875 0 L 13.953125 0 C 13.460938 0 13.21875 -0.191406 13.21875 -0.578125 C 13.21875 -0.929688 13.445312 -1.144531 13.90625 -1.21875 L 14.8125 -1.328125 C 16.15625 -1.503906 16.4375 -2.367188 15.65625 -3.921875 L 10.609375 -13.75 C 10.429688 -14.101562 10.175781 -14.296875 9.84375 -14.328125 C 9.507812 -14.367188 9.203125 -14.242188 8.921875 -13.953125 L 8.328125 -13.375 C 8.015625 -13.050781 7.800781 -12.726562 7.6875 -12.40625 C 7.582031 -12.09375 7.53125 -11.742188 7.53125 -11.359375 L 7.53125 -3.5625 C 7.53125 -2.8125 7.644531 -2.273438 7.875 -1.953125 C 8.113281 -1.640625 8.601562 -1.445312 9.34375 -1.375 L 10.78125 -1.21875 C 11.164062 -1.144531 11.359375 -0.929688 11.359375 -0.578125 C 11.359375 -0.191406 11.144531 0 10.71875 0 Z M 1.4375 0 "/></g></g></g></g></g></svg>