<svg xmlns="http://www.w3.org/2000/svg" xmlns:xlink="http://www.w3.org/1999/xlink" width="1200" zoomAndPan="magnify" viewBox="0 0 900 119.999999" height="160" preserveAspectRatio="xMidYMid meet" version="1.0"><defs><g/><clipPath id="abf333a28d"><rect x="0" width="82" y="0" height="70"/></clipPath></defs><g transform="matrix(1, 0, 0, 1, 408, 25)"><g clip-path="url(#abf333a28d)"><g fill="#e10613" fill-opacity="1"><g transform="translate(1.929417, 52.059013)"><g><path d="M 10.296875 0.484375 C 9.972656 0.484375 9.742188 0.285156 9.609375 -0.109375 L 2.546875 -23.515625 C 2.296875 -24.359375 2.054688 -24.90625 1.828125 -25.15625 C 1.597656 -25.40625 1.238281 -25.582031 0.75 -25.6875 L -0.046875 -25.84375 C -0.515625 -25.957031 -0.75 -26.191406 -0.75 -26.546875 C -0.75 -26.890625 -0.5 -27.0625 0 -27.0625 L 8.765625 -27.0625 C 9.253906 -27.0625 9.5 -26.890625 9.5 -26.546875 C 9.5 -26.148438 9.269531 -25.914062 8.8125 -25.84375 L 7.96875 -25.75 C 7.113281 -25.632812 6.578125 -25.425781 6.359375 -25.125 C 6.148438 -24.832031 6.15625 -24.296875 6.375 -23.515625 L 10.78125 -8.171875 C 10.882812 -7.785156 11.054688 -7.59375 11.296875 -7.59375 C 11.546875 -7.59375 11.726562 -7.785156 11.84375 -8.171875 L 16.140625 -22.5625 C 16.421875 -23.507812 16.5 -24.222656 16.375 -24.703125 C 16.25 -25.179688 15.742188 -25.492188 14.859375 -25.640625 L 13.75 -25.84375 C 13.289062 -25.957031 13.0625 -26.191406 13.0625 -26.546875 C 13.0625 -26.890625 13.304688 -27.0625 13.796875 -27.0625 L 20.546875 -27.0625 C 21.035156 -27.0625 21.28125 -26.867188 21.28125 -26.484375 C 21.28125 -26.128906 21.066406 -25.882812 20.640625 -25.75 L 20.171875 -25.578125 C 19.640625 -25.398438 19.1875 -25.082031 18.8125 -24.625 C 18.445312 -24.164062 18.085938 -23.367188 17.734375 -22.234375 L 10.984375 -0.109375 C 10.847656 0.285156 10.617188 0.484375 10.296875 0.484375 Z M 10.296875 0.484375 "/></g></g></g><g fill="#e10613" fill-opacity="1"><g transform="translate(19.974068, 52.059013)"><g><path d="M 6.046875 -32.109375 C 5.304688 -32.109375 4.675781 -32.375 4.15625 -32.90625 C 3.644531 -33.4375 3.390625 -34.109375 3.390625 -34.921875 C 3.390625 -35.734375 3.644531 -36.394531 4.15625 -36.90625 C 4.675781 -37.425781 5.304688 -37.6875 6.046875 -37.6875 C 6.796875 -37.6875 7.414062 -37.425781 7.90625 -36.90625 C 8.40625 -36.394531 8.65625 -35.734375 8.65625 -34.921875 C 8.65625 -34.109375 8.40625 -33.4375 7.90625 -32.90625 C 7.414062 -32.375 6.796875 -32.109375 6.046875 -32.109375 Z M 1.59375 0 C 1.0625 0 0.796875 -0.191406 0.796875 -0.578125 C 0.796875 -0.898438 1.023438 -1.113281 1.484375 -1.21875 L 2.125 -1.328125 C 3.007812 -1.472656 3.570312 -1.691406 3.8125 -1.984375 C 4.0625 -2.285156 4.1875 -2.8125 4.1875 -3.5625 L 4.1875 -21.390625 C 4.1875 -22.023438 4.085938 -22.457031 3.890625 -22.6875 C 3.703125 -22.914062 3.359375 -23.066406 2.859375 -23.140625 L 1.75 -23.296875 C 1.289062 -23.335938 1.0625 -23.535156 1.0625 -23.890625 C 1.0625 -24.171875 1.34375 -24.363281 1.90625 -24.46875 C 3.007812 -24.644531 3.894531 -24.925781 4.5625 -25.3125 C 5.238281 -25.707031 5.894531 -26.1875 6.53125 -26.75 C 6.84375 -27.070312 7.109375 -27.234375 7.328125 -27.234375 C 7.640625 -27.234375 7.796875 -27.019531 7.796875 -26.59375 L 7.796875 -3.5625 C 7.796875 -2.8125 7.898438 -2.273438 8.109375 -1.953125 C 8.328125 -1.640625 8.738281 -1.445312 9.34375 -1.375 L 10.671875 -1.21875 C 11.054688 -1.144531 11.25 -0.953125 11.25 -0.640625 C 11.25 -0.210938 10.984375 0 10.453125 0 Z M 1.59375 0 "/></g></g></g><g fill="#e10613" fill-opacity="1"><g transform="translate(28.996394, 52.059013)"><g><path d="M 10.9375 0.484375 C 9.488281 0.484375 8.085938 0.0195312 6.734375 -0.90625 C 5.960938 -1.4375 5.257812 -1.296875 4.625 -0.484375 C 4.269531 -0.0859375 4.003906 0.171875 3.828125 0.296875 C 3.648438 0.421875 3.472656 0.484375 3.296875 0.484375 C 2.898438 0.484375 2.753906 0.234375 2.859375 -0.265625 C 3.003906 -1.078125 3.113281 -2.117188 3.1875 -3.390625 C 3.257812 -4.671875 3.296875 -6.375 3.296875 -8.5 L 3.296875 -33.96875 C 3.296875 -34.601562 3.195312 -35.035156 3 -35.265625 C 2.800781 -35.492188 2.457031 -35.644531 1.96875 -35.71875 L 0.84375 -35.875 C 0.457031 -35.945312 0.265625 -36.160156 0.265625 -36.515625 C 0.265625 -36.867188 0.457031 -37.082031 0.84375 -37.15625 C 1.832031 -37.363281 2.664062 -37.609375 3.34375 -37.890625 C 4.019531 -38.179688 4.585938 -38.46875 5.046875 -38.75 C 5.609375 -39.101562 6.03125 -39.28125 6.3125 -39.28125 C 6.707031 -39.28125 6.90625 -38.992188 6.90625 -38.421875 L 6.90625 -25.3125 C 6.90625 -25.03125 7.019531 -24.84375 7.25 -24.75 C 7.476562 -24.664062 7.734375 -24.765625 8.015625 -25.046875 C 9.535156 -26.609375 11.195312 -27.390625 13 -27.390625 C 14.632812 -27.390625 16.078125 -26.847656 17.328125 -25.765625 C 18.585938 -24.691406 19.578125 -23.195312 20.296875 -21.28125 C 21.023438 -19.375 21.390625 -17.128906 21.390625 -14.546875 C 21.390625 -11.609375 20.925781 -9.003906 20 -6.734375 C 19.082031 -4.472656 17.835938 -2.703125 16.265625 -1.421875 C 14.691406 -0.148438 12.914062 0.484375 10.9375 0.484375 Z M 10.828125 -0.84375 C 12.804688 -0.84375 14.40625 -2.007812 15.625 -4.34375 C 16.851562 -6.6875 17.46875 -9.835938 17.46875 -13.796875 C 17.46875 -17.441406 16.9375 -20.21875 15.875 -22.125 C 14.8125 -24.039062 13.304688 -25 11.359375 -25 C 10.148438 -25 9.101562 -24.503906 8.21875 -23.515625 C 7.34375 -22.523438 6.90625 -21.144531 6.90625 -19.375 L 6.90625 -6 C 6.90625 -4.40625 7.265625 -3.144531 7.984375 -2.21875 C 8.710938 -1.300781 9.660156 -0.84375 10.828125 -0.84375 Z M 10.828125 -0.84375 "/></g></g></g><g fill="#e10613" fill-opacity="1"><g transform="translate(49.694672, 52.059013)"><g><path d="M 10.1875 0.484375 C 8.488281 0.484375 6.96875 -0.0820312 5.625 -1.21875 C 4.28125 -2.351562 3.207031 -3.953125 2.40625 -6.015625 C 1.613281 -8.085938 1.21875 -10.488281 1.21875 -13.21875 C 1.21875 -16.007812 1.625 -18.46875 2.4375 -20.59375 C 3.25 -22.71875 4.363281 -24.378906 5.78125 -25.578125 C 7.195312 -26.785156 8.773438 -27.390625 10.515625 -27.390625 C 12.597656 -27.390625 14.285156 -26.53125 15.578125 -24.8125 C 16.867188 -23.09375 17.515625 -20.304688 17.515625 -16.453125 C 17.515625 -15.285156 17.070312 -14.703125 16.1875 -14.703125 L 6.109375 -14.703125 C 5.398438 -14.703125 5.046875 -14.296875 5.046875 -13.484375 C 5.046875 -9.734375 5.59375 -6.921875 6.6875 -5.046875 C 7.78125 -3.171875 9.175781 -2.234375 10.875 -2.234375 C 12.21875 -2.234375 13.316406 -2.707031 14.171875 -3.65625 C 15.023438 -4.613281 15.710938 -6.226562 16.234375 -8.5 C 16.347656 -8.882812 16.582031 -9.078125 16.9375 -9.078125 C 17.351562 -9.078125 17.507812 -8.722656 17.40625 -8.015625 C 16.84375 -4.867188 15.941406 -2.664062 14.703125 -1.40625 C 13.460938 -0.144531 11.957031 0.484375 10.1875 0.484375 Z M 5.9375 -16.03125 L 11.3125 -16.03125 C 13.007812 -16.03125 13.859375 -16.914062 13.859375 -18.6875 C 13.859375 -20.988281 13.570312 -22.789062 13 -24.09375 C 12.4375 -25.40625 11.585938 -26.0625 10.453125 -26.0625 C 9.078125 -26.0625 7.921875 -25.265625 6.984375 -23.671875 C 6.046875 -22.078125 5.4375 -19.8125 5.15625 -16.875 C 5.082031 -16.3125 5.34375 -16.03125 5.9375 -16.03125 Z M 5.9375 -16.03125 "/></g></g></g><g fill="#e10613" fill-opacity="1"><g transform="translate(65.722578, 52.059013)"><g><path d="M 6.953125 0.484375 C 6.140625 0.484375 5.269531 0.382812 4.34375 0.1875 C 3.425781 -0.0078125 2.6875 -0.25 2.125 -0.53125 C 1.800781 -0.707031 1.640625 -1.007812 1.640625 -1.4375 L 1.484375 -7.375 C 1.484375 -7.976562 1.710938 -8.28125 2.171875 -8.28125 C 2.566406 -8.28125 2.832031 -8 2.96875 -7.4375 C 3.570312 -4.914062 4.304688 -3.195312 5.171875 -2.28125 C 6.035156 -1.363281 7.085938 -0.90625 8.328125 -0.90625 C 9.359375 -0.90625 10.207031 -1.300781 10.875 -2.09375 C 11.550781 -2.894531 11.890625 -4 11.890625 -5.40625 C 11.890625 -6.820312 11.5 -8.078125 10.71875 -9.171875 C 9.9375 -10.273438 8.628906 -11.484375 6.796875 -12.796875 C 4.953125 -14.035156 3.601562 -15.28125 2.75 -16.53125 C 1.90625 -17.789062 1.484375 -19.160156 1.484375 -20.640625 C 1.484375 -22.660156 2.191406 -24.289062 3.609375 -25.53125 C 5.023438 -26.769531 6.898438 -27.390625 9.234375 -27.390625 C 9.941406 -27.390625 10.628906 -27.304688 11.296875 -27.140625 C 11.972656 -26.984375 12.578125 -26.726562 13.109375 -26.375 C 13.429688 -26.164062 13.59375 -25.882812 13.59375 -25.53125 L 13.6875 -19.6875 C 13.6875 -19.15625 13.476562 -18.890625 13.0625 -18.890625 C 12.8125 -18.890625 12.632812 -18.96875 12.53125 -19.125 C 12.425781 -19.289062 12.335938 -19.5 12.265625 -19.75 C 11.554688 -22.039062 10.847656 -23.640625 10.140625 -24.546875 C 9.429688 -25.453125 8.5625 -25.90625 7.53125 -25.90625 C 6.613281 -25.90625 5.851562 -25.582031 5.25 -24.9375 C 4.65625 -24.300781 4.359375 -23.507812 4.359375 -22.5625 C 4.359375 -21.320312 4.726562 -20.238281 5.46875 -19.3125 C 6.207031 -18.394531 7.550781 -17.265625 9.5 -15.921875 C 11.269531 -14.648438 12.601562 -13.28125 13.5 -11.8125 C 14.40625 -10.34375 14.859375 -8.738281 14.859375 -7 C 14.859375 -4.738281 14.132812 -2.925781 12.6875 -1.5625 C 11.238281 -0.195312 9.328125 0.484375 6.953125 0.484375 Z M 6.953125 0.484375 "/></g></g></g></g></g></svg>